<?xml version="1.0" standalone="no"?>
<!DOCTYPE svg PUBLIC "-//W3C//DTD SVG 1.1//EN"
 "http://www.w3.org/Graphics/SVG/1.1/DTD/svg11.dtd">
<!-- Created with svg_stack (http://github.com/astraw/svg_stack) -->
<svg xmlns:sodipodi="http://sodipodi.sourceforge.net/DTD/sodipodi-0.dtd" xmlns="http://www.w3.org/2000/svg" version="1.1" width="50.0" height="50.0">
  <defs/>
  <g id="id0:id0" transform="matrix(1.25,0,0,1.25,0.0,0.0)"><g transform="translate(0.000000,40.000000) scale(0.040000,-0.040000)" fill="#ffffff" stroke="none">
<path d="M0 500 l0 -500 500 0 500 0 0 500 0 500 -500 0 -500 0 0 -500z m253 473 c-13 -2 -33 -2 -45 0 -13 2 -3 4 22 4 25 0 35 -2 23 -4z m22 -33 c4 -6 11 -8 16 -5 5 3 7 0 4 -7 -2 -7 2 -22 11 -33 13 -17 16 -18 25 -5 7 11 8 9 4 -10 -3 -15 2 -33 10 -45 14 -17 17 -18 26 -5 8 12 9 10 4 -8 -4 -14 1 -32 14 -51 21 -29 29 -95 13 -105 -5 -3 -8 -30 -7 -62 l2 -56 88 -88 c72 -73 92 -88 114 -85 38 4 39 7 6 15 -28 7 -27 7 7 5 38 -3 63 11 31 17 -9 2 21 3 67 3 46 0 76 -2 66 -3 -30 -6 10 -42 43 -38 14 2 20 1 13 -1 -11 -4 -10 -9 3 -23 12 -14 26 -18 49 -14 21 3 25 2 13 -4 -17 -7 -17 -9 2 -26 11 -10 25 -15 32 -10 7 4 10 3 5 -4 -3 -6 -2 -13 4 -17 14 -9 13 -78 -2 -93 -8 -8 -8 -15 2 -27 8 -10 9 -15 1 -15 -6 0 -11 5 -11 12 0 7 -25 -12 -55 -42 -40 -39 -51 -56 -41 -60 8 -3 -31 -5 -87 -5 -56 0 -88 2 -72 5 43 8 14 22 -32 16 -21 -3 -30 -3 -20 0 26 8 10 24 -21 20 -15 -2 -21 -1 -14 1 23 8 1 23 -26 18 -23 -4 -24 -4 -7 4 22 10 14 14 -25 12 -22 -1 -22 0 -6 7 21 9 8 25 -16 19 -7 -2 -10 -2 -5 0 18 11 4 23 -20 17 -18 -3 -23 -2 -15 3 15 12 -37 66 -59 60 -8 -2 -11 -2 -6 0 13 8 7 25 -7 20 -10 -4 -13 -1 -9 9 5 14 -12 20 -20 7 -2 -5 -3 -3 -1 3 4 19 -93 108 -100 92 -3 -7 -3 -3 0 10 6 23 -10 31 -20 10 -3 -7 -3 -3 0 10 5 20 -9 32 -19 15 -2 -5 -2 -2 0 6 2 8 -4 22 -14 33 -13 14 -19 16 -25 6 -6 -9 -8 -7 -4 7 3 11 -2 29 -10 40 -13 17 -16 18 -25 5 -7 -11 -8 -8 -3 13 6 27 -10 40 -19 15 -2 -7 -2 -1 0 15 5 27 -12 39 -20 15 -2 -7 -3 -3 -1 9 2 12 -6 41 -17 65 -35 69 -38 79 -42 148 -2 36 -2 59 1 51 3 -8 23 5 58 40 39 38 50 55 41 62 -7 5 -4 6 10 2 12 -3 24 -1 28 5 8 13 82 13 90 0z m-248 -212 c-2 -18 -4 -4 -4 32 0 36 2 50 4 33 2 -18 2 -48 0 -65z m418 -8 c2 -13 0 -30 -5 -39 -7 -12 -9 -4 -10 28 0 46 7 51 15 11z m-398 -62 c-3 -7 -5 -2 -5 12 0 14 2 19 5 13 2 -7 2 -19 0 -25z m370 -20 c-3 -8 -6 -5 -6 6 -1 11 2 17 5 13 3 -3 4 -12 1 -19z m-350 -20 c-3 -8 -6 -5 -6 6 -1 11 2 17 5 13 3 -3 4 -12 1 -19z m20 -40 c-3 -8 -6 -5 -6 6 -1 11 2 17 5 13 3 -3 4 -12 1 -19z m383 -62 c0 -3 -4 -8 -10 -11 -5 -3 -10 -1 -10 4 0 6 5 11 10 11 6 0 10 -2 10 -4z m20 -20 c0 -3 -4 -8 -10 -11 -5 -3 -10 -1 -10 4 0 6 5 11 10 11 6 0 10 -2 10 -4z m20 -20 c0 -3 -4 -8 -10 -11 -5 -3 -10 -1 -10 4 0 6 5 11 10 11 6 0 10 -2 10 -4z m233 -43 c-13 -2 -35 -2 -50 0 -16 2 -5 4 22 4 28 0 40 -2 28 -4z m74 -39 c-3 -3 -12 -4 -19 -1 -8 3 -5 6 6 6 11 1 17 -2 13 -5z m60 -40 c-3 -3 -12 -4 -19 -1 -8 3 -5 6 6 6 11 1 17 -2 13 -5z m-527 -75 c0 -4 -7 -6 -15 -3 -8 4 -15 10 -15 15 0 4 7 6 15 3 8 -4 15 -10 15 -15z m631 -67 c-9 -25 -9 -24 -10 18 0 36 2 41 10 27 7 -12 7 -27 0 -45z m-188 -189 c-18 -2 -48 -2 -65 0 -18 2 -4 4 32 4 36 0 50 -2 33 -4z"/>
<path d="M226 865 c7 -27 6 -28 -24 -22 -35 7 -67 -17 -43 -33 9 -5 10 -10 2 -14 -6 -4 -11 -2 -11 3 0 6 -4 11 -10 11 -5 0 -7 -15 -5 -32 4 -27 3 -28 -3 -8 -5 17 -10 21 -15 13 -5 -7 -3 -21 3 -32 5 -11 10 -31 10 -45 0 -32 17 -34 23 -3 2 12 2 3 0 -20 -3 -26 0 -43 6 -43 6 0 11 7 11 16 0 8 5 12 10 9 8 -5 7 -11 -1 -21 -6 -7 -8 -22 -4 -31 7 -17 8 -16 16 2 8 16 8 15 4 -7 -5 -27 10 -49 18 -26 2 7 2 3 1 -9 -4 -24 12 -41 19 -21 2 7 3 5 1 -6 -3 -19 15 -56 28 -56 3 0 8 6 11 13 2 6 3 3 1 -8 -2 -15 25 -49 99 -123 86 -86 106 -101 127 -97 22 5 22 4 5 -4 -21 -10 -15 -13 25 -13 18 1 20 -1 7 -5 -18 -4 -18 -6 -1 -24 11 -13 25 -17 43 -14 22 5 23 4 6 -4 -22 -10 -16 -13 30 -13 23 0 25 -1 7 -5 -33 -7 -17 -22 21 -19 17 2 24 1 14 -1 -35 -9 -6 -20 45 -17 49 2 50 2 13 -5 -41 -8 -38 -11 27 -29 21 -6 40 -6 43 -2 3 5 -3 11 -12 13 -10 2 -6 3 9 1 31 -4 60 22 39 36 -9 5 -10 10 -2 14 6 4 11 2 11 -3 0 -6 4 -11 10 -11 5 0 7 13 3 31 -6 31 -5 32 22 25 25 -6 27 -5 16 8 -9 10 -23 14 -40 11 -14 -3 -20 -2 -13 1 24 11 -17 45 -47 38 -17 -4 -22 -2 -13 3 20 15 -17 39 -58 37 -52 -2 -58 -5 -30 -15 21 -7 19 -8 -12 -4 -38 4 -54 -10 -20 -17 9 -3 -11 -4 -44 -4 -34 1 -58 4 -53 7 13 8 -25 40 -42 36 -8 -2 -11 -2 -6 0 17 10 5 24 -15 18 -14 -4 -18 -3 -11 2 9 6 -7 28 -56 77 -48 47 -71 64 -75 55 -3 -8 -3 -4 0 9 6 23 -10 31 -20 10 -3 -7 -4 -4 -1 7 2 11 -3 29 -11 40 -13 17 -16 18 -24 5 -6 -10 -7 -2 -3 25 3 22 10 45 15 52 5 6 7 22 5 35 -2 12 -2 17 0 11 10 -28 21 -10 21 31 -1 52 -23 90 -39 66 -7 -11 -8 -9 -4 10 3 15 -2 33 -10 45 -14 17 -17 18 -26 5 -7 -11 -8 -8 -4 11 4 17 1 30 -10 39 -15 12 -16 11 -9 -15z m41 -282 c-3 -10 -5 -4 -5 12 0 17 2 24 5 18 2 -7 2 -21 0 -30z m103 -167 c0 -3 -4 -8 -10 -11 -5 -3 -10 -1 -10 4 0 6 5 11 10 11 6 0 10 -2 10 -4z m20 -20 c0 -3 -4 -8 -10 -11 -5 -3 -10 -1 -10 4 0 6 5 11 10 11 6 0 10 -2 10 -4z m60 -16 c13 -11 18 -20 11 -20 -13 0 -41 24 -41 34 0 10 6 7 30 -14z m-40 -4 c0 -3 -4 -8 -10 -11 -5 -3 -10 -1 -10 4 0 6 5 11 10 11 6 0 10 -2 10 -4z m203 -113 c-7 -2 -21 -2 -30 0 -10 3 -4 5 12 5 17 0 24 -2 18 -5z"/>
<path d="M190 860 c0 -5 5 -10 10 -10 6 0 10 5 10 10 0 6 -4 10 -10 10 -5 0 -10 -4 -10 -10z"/>
<path d="M330 710 c0 -5 5 -10 10 -10 6 0 10 5 10 10 0 6 -4 10 -10 10 -5 0 -10 -4 -10 -10z"/>
<path d="M377 623 c-11 -10 -8 -53 3 -53 6 0 10 14 10 30 0 31 -2 35 -13 23z"/>
<path d="M850 205 c0 -8 5 -15 10 -15 6 0 10 7 10 15 0 8 -4 15 -10 15 -5 0 -10 -7 -10 -15z"/>
</g>
</g>
  <g id="id1:id1" transform="matrix(1.25,0,0,1.25,0.0,0.0)"><g transform="translate(0.000000,40.000000) scale(0.040000,-0.040000)" fill="#ffffff" stroke="none">
<path d="M0 500 l0 -500 500 0 500 0 0 500 0 500 -500 0 -500 0 0 -500z m253 473 c-13 -2 -33 -2 -45 0 -13 2 -3 4 22 4 25 0 35 -2 23 -4z m22 -33 c4 -6 11 -8 16 -5 5 3 7 0 4 -7 -2 -7 2 -22 11 -33 13 -17 16 -18 25 -5 7 11 8 9 4 -10 -3 -15 2 -33 10 -45 14 -17 17 -18 26 -5 8 12 9 10 4 -8 -4 -14 1 -32 14 -51 21 -29 29 -95 13 -105 -5 -3 -8 -30 -7 -62 l2 -56 88 -88 c72 -73 92 -88 114 -85 38 4 39 7 6 15 -28 7 -27 7 7 5 38 -3 63 11 31 17 -9 2 21 3 67 3 46 0 76 -2 66 -3 -30 -6 10 -42 43 -38 14 2 20 1 13 -1 -11 -4 -10 -9 3 -23 12 -14 26 -18 49 -14 21 3 25 2 13 -4 -17 -7 -17 -9 2 -26 11 -10 25 -15 32 -10 7 4 10 3 5 -4 -3 -6 -2 -13 4 -17 14 -9 13 -78 -2 -93 -8 -8 -8 -15 2 -27 8 -10 9 -15 1 -15 -6 0 -11 5 -11 12 0 7 -25 -12 -55 -42 -40 -39 -51 -56 -41 -60 8 -3 -31 -5 -87 -5 -56 0 -88 2 -72 5 43 8 14 22 -32 16 -21 -3 -30 -3 -20 0 26 8 10 24 -21 20 -15 -2 -21 -1 -14 1 23 8 1 23 -26 18 -23 -4 -24 -4 -7 4 22 10 14 14 -25 12 -22 -1 -22 0 -6 7 21 9 8 25 -16 19 -7 -2 -10 -2 -5 0 18 11 4 23 -20 17 -18 -3 -23 -2 -15 3 15 12 -37 66 -59 60 -8 -2 -11 -2 -6 0 13 8 7 25 -7 20 -10 -4 -13 -1 -9 9 5 14 -12 20 -20 7 -2 -5 -3 -3 -1 3 4 19 -93 108 -100 92 -3 -7 -3 -3 0 10 6 23 -10 31 -20 10 -3 -7 -3 -3 0 10 5 20 -9 32 -19 15 -2 -5 -2 -2 0 6 2 8 -4 22 -14 33 -13 14 -19 16 -25 6 -6 -9 -8 -7 -4 7 3 11 -2 29 -10 40 -13 17 -16 18 -25 5 -7 -11 -8 -8 -3 13 6 27 -10 40 -19 15 -2 -7 -2 -1 0 15 5 27 -12 39 -20 15 -2 -7 -3 -3 -1 9 2 12 -6 41 -17 65 -35 69 -38 79 -42 148 -2 36 -2 59 1 51 3 -8 23 5 58 40 39 38 50 55 41 62 -7 5 -4 6 10 2 12 -3 24 -1 28 5 8 13 82 13 90 0z m-248 -212 c-2 -18 -4 -4 -4 32 0 36 2 50 4 33 2 -18 2 -48 0 -65z m418 -8 c2 -13 0 -30 -5 -39 -7 -12 -9 -4 -10 28 0 46 7 51 15 11z m-398 -62 c-3 -7 -5 -2 -5 12 0 14 2 19 5 13 2 -7 2 -19 0 -25z m370 -20 c-3 -8 -6 -5 -6 6 -1 11 2 17 5 13 3 -3 4 -12 1 -19z m-350 -20 c-3 -8 -6 -5 -6 6 -1 11 2 17 5 13 3 -3 4 -12 1 -19z m20 -40 c-3 -8 -6 -5 -6 6 -1 11 2 17 5 13 3 -3 4 -12 1 -19z m383 -62 c0 -3 -4 -8 -10 -11 -5 -3 -10 -1 -10 4 0 6 5 11 10 11 6 0 10 -2 10 -4z m20 -20 c0 -3 -4 -8 -10 -11 -5 -3 -10 -1 -10 4 0 6 5 11 10 11 6 0 10 -2 10 -4z m20 -20 c0 -3 -4 -8 -10 -11 -5 -3 -10 -1 -10 4 0 6 5 11 10 11 6 0 10 -2 10 -4z m233 -43 c-13 -2 -35 -2 -50 0 -16 2 -5 4 22 4 28 0 40 -2 28 -4z m74 -39 c-3 -3 -12 -4 -19 -1 -8 3 -5 6 6 6 11 1 17 -2 13 -5z m60 -40 c-3 -3 -12 -4 -19 -1 -8 3 -5 6 6 6 11 1 17 -2 13 -5z m-527 -75 c0 -4 -7 -6 -15 -3 -8 4 -15 10 -15 15 0 4 7 6 15 3 8 -4 15 -10 15 -15z m631 -67 c-9 -25 -9 -24 -10 18 0 36 2 41 10 27 7 -12 7 -27 0 -45z m-188 -189 c-18 -2 -48 -2 -65 0 -18 2 -4 4 32 4 36 0 50 -2 33 -4z"/>
<path d="M226 865 c7 -27 6 -28 -24 -22 -35 7 -67 -17 -43 -33 9 -5 10 -10 2 -14 -6 -4 -11 -2 -11 3 0 6 -4 11 -10 11 -5 0 -7 -15 -5 -32 4 -27 3 -28 -3 -8 -5 17 -10 21 -15 13 -5 -7 -3 -21 3 -32 5 -11 10 -31 10 -45 0 -32 17 -34 23 -3 2 12 2 3 0 -20 -3 -26 0 -43 6 -43 6 0 11 7 11 16 0 8 5 12 10 9 8 -5 7 -11 -1 -21 -6 -7 -8 -22 -4 -31 7 -17 8 -16 16 2 8 16 8 15 4 -7 -5 -27 10 -49 18 -26 2 7 2 3 1 -9 -4 -24 12 -41 19 -21 2 7 3 5 1 -6 -3 -19 15 -56 28 -56 3 0 8 6 11 13 2 6 3 3 1 -8 -2 -15 25 -49 99 -123 86 -86 106 -101 127 -97 22 5 22 4 5 -4 -21 -10 -15 -13 25 -13 18 1 20 -1 7 -5 -18 -4 -18 -6 -1 -24 11 -13 25 -17 43 -14 22 5 23 4 6 -4 -22 -10 -16 -13 30 -13 23 0 25 -1 7 -5 -33 -7 -17 -22 21 -19 17 2 24 1 14 -1 -35 -9 -6 -20 45 -17 49 2 50 2 13 -5 -41 -8 -38 -11 27 -29 21 -6 40 -6 43 -2 3 5 -3 11 -12 13 -10 2 -6 3 9 1 31 -4 60 22 39 36 -9 5 -10 10 -2 14 6 4 11 2 11 -3 0 -6 4 -11 10 -11 5 0 7 13 3 31 -6 31 -5 32 22 25 25 -6 27 -5 16 8 -9 10 -23 14 -40 11 -14 -3 -20 -2 -13 1 24 11 -17 45 -47 38 -17 -4 -22 -2 -13 3 20 15 -17 39 -58 37 -52 -2 -58 -5 -30 -15 21 -7 19 -8 -12 -4 -38 4 -54 -10 -20 -17 9 -3 -11 -4 -44 -4 -34 1 -58 4 -53 7 13 8 -25 40 -42 36 -8 -2 -11 -2 -6 0 17 10 5 24 -15 18 -14 -4 -18 -3 -11 2 9 6 -7 28 -56 77 -48 47 -71 64 -75 55 -3 -8 -3 -4 0 9 6 23 -10 31 -20 10 -3 -7 -4 -4 -1 7 2 11 -3 29 -11 40 -13 17 -16 18 -24 5 -6 -10 -7 -2 -3 25 3 22 10 45 15 52 5 6 7 22 5 35 -2 12 -2 17 0 11 10 -28 21 -10 21 31 -1 52 -23 90 -39 66 -7 -11 -8 -9 -4 10 3 15 -2 33 -10 45 -14 17 -17 18 -26 5 -7 -11 -8 -8 -4 11 4 17 1 30 -10 39 -15 12 -16 11 -9 -15z m41 -282 c-3 -10 -5 -4 -5 12 0 17 2 24 5 18 2 -7 2 -21 0 -30z m103 -167 c0 -3 -4 -8 -10 -11 -5 -3 -10 -1 -10 4 0 6 5 11 10 11 6 0 10 -2 10 -4z m20 -20 c0 -3 -4 -8 -10 -11 -5 -3 -10 -1 -10 4 0 6 5 11 10 11 6 0 10 -2 10 -4z m60 -16 c13 -11 18 -20 11 -20 -13 0 -41 24 -41 34 0 10 6 7 30 -14z m-40 -4 c0 -3 -4 -8 -10 -11 -5 -3 -10 -1 -10 4 0 6 5 11 10 11 6 0 10 -2 10 -4z m203 -113 c-7 -2 -21 -2 -30 0 -10 3 -4 5 12 5 17 0 24 -2 18 -5z"/>
<path d="M190 860 c0 -5 5 -10 10 -10 6 0 10 5 10 10 0 6 -4 10 -10 10 -5 0 -10 -4 -10 -10z"/>
<path d="M330 710 c0 -5 5 -10 10 -10 6 0 10 5 10 10 0 6 -4 10 -10 10 -5 0 -10 -4 -10 -10z"/>
<path d="M377 623 c-11 -10 -8 -53 3 -53 6 0 10 14 10 30 0 31 -2 35 -13 23z"/>
<path d="M850 205 c0 -8 5 -15 10 -15 6 0 10 7 10 15 0 8 -4 15 -10 15 -5 0 -10 -7 -10 -15z"/>
</g>
</g>
  <g id="id2:id2" transform="matrix(1.25,0,0,1.25,0.0,0.0)"><g transform="translate(0.000000,40.000000) scale(0.040000,-0.040000)" fill="#ffffff" stroke="none">
<path d="M0 500 l0 -500 500 0 500 0 0 500 0 500 -500 0 -500 0 0 -500z m253 473 c-13 -2 -33 -2 -45 0 -13 2 -3 4 22 4 25 0 35 -2 23 -4z m22 -33 c4 -6 11 -8 16 -5 5 3 7 0 4 -7 -2 -7 2 -22 11 -33 13 -17 16 -18 25 -5 7 11 8 9 4 -10 -3 -15 2 -33 10 -45 14 -17 17 -18 26 -5 8 12 9 10 4 -8 -4 -14 1 -32 14 -51 21 -29 29 -95 13 -105 -5 -3 -8 -30 -7 -62 l2 -56 88 -88 c72 -73 92 -88 114 -85 38 4 39 7 6 15 -28 7 -27 7 7 5 38 -3 63 11 31 17 -9 2 21 3 67 3 46 0 76 -2 66 -3 -30 -6 10 -42 43 -38 14 2 20 1 13 -1 -11 -4 -10 -9 3 -23 12 -14 26 -18 49 -14 21 3 25 2 13 -4 -17 -7 -17 -9 2 -26 11 -10 25 -15 32 -10 7 4 10 3 5 -4 -3 -6 -2 -13 4 -17 14 -9 13 -78 -2 -93 -8 -8 -8 -15 2 -27 8 -10 9 -15 1 -15 -6 0 -11 5 -11 12 0 7 -25 -12 -55 -42 -40 -39 -51 -56 -41 -60 8 -3 -31 -5 -87 -5 -56 0 -88 2 -72 5 43 8 14 22 -32 16 -21 -3 -30 -3 -20 0 26 8 10 24 -21 20 -15 -2 -21 -1 -14 1 23 8 1 23 -26 18 -23 -4 -24 -4 -7 4 22 10 14 14 -25 12 -22 -1 -22 0 -6 7 21 9 8 25 -16 19 -7 -2 -10 -2 -5 0 18 11 4 23 -20 17 -18 -3 -23 -2 -15 3 15 12 -37 66 -59 60 -8 -2 -11 -2 -6 0 13 8 7 25 -7 20 -10 -4 -13 -1 -9 9 5 14 -12 20 -20 7 -2 -5 -3 -3 -1 3 4 19 -93 108 -100 92 -3 -7 -3 -3 0 10 6 23 -10 31 -20 10 -3 -7 -3 -3 0 10 5 20 -9 32 -19 15 -2 -5 -2 -2 0 6 2 8 -4 22 -14 33 -13 14 -19 16 -25 6 -6 -9 -8 -7 -4 7 3 11 -2 29 -10 40 -13 17 -16 18 -25 5 -7 -11 -8 -8 -3 13 6 27 -10 40 -19 15 -2 -7 -2 -1 0 15 5 27 -12 39 -20 15 -2 -7 -3 -3 -1 9 2 12 -6 41 -17 65 -35 69 -38 79 -42 148 -2 36 -2 59 1 51 3 -8 23 5 58 40 39 38 50 55 41 62 -7 5 -4 6 10 2 12 -3 24 -1 28 5 8 13 82 13 90 0z m-248 -212 c-2 -18 -4 -4 -4 32 0 36 2 50 4 33 2 -18 2 -48 0 -65z m418 -8 c2 -13 0 -30 -5 -39 -7 -12 -9 -4 -10 28 0 46 7 51 15 11z m-398 -62 c-3 -7 -5 -2 -5 12 0 14 2 19 5 13 2 -7 2 -19 0 -25z m370 -20 c-3 -8 -6 -5 -6 6 -1 11 2 17 5 13 3 -3 4 -12 1 -19z m-350 -20 c-3 -8 -6 -5 -6 6 -1 11 2 17 5 13 3 -3 4 -12 1 -19z m20 -40 c-3 -8 -6 -5 -6 6 -1 11 2 17 5 13 3 -3 4 -12 1 -19z m383 -62 c0 -3 -4 -8 -10 -11 -5 -3 -10 -1 -10 4 0 6 5 11 10 11 6 0 10 -2 10 -4z m20 -20 c0 -3 -4 -8 -10 -11 -5 -3 -10 -1 -10 4 0 6 5 11 10 11 6 0 10 -2 10 -4z m20 -20 c0 -3 -4 -8 -10 -11 -5 -3 -10 -1 -10 4 0 6 5 11 10 11 6 0 10 -2 10 -4z m233 -43 c-13 -2 -35 -2 -50 0 -16 2 -5 4 22 4 28 0 40 -2 28 -4z m74 -39 c-3 -3 -12 -4 -19 -1 -8 3 -5 6 6 6 11 1 17 -2 13 -5z m60 -40 c-3 -3 -12 -4 -19 -1 -8 3 -5 6 6 6 11 1 17 -2 13 -5z m-527 -75 c0 -4 -7 -6 -15 -3 -8 4 -15 10 -15 15 0 4 7 6 15 3 8 -4 15 -10 15 -15z m631 -67 c-9 -25 -9 -24 -10 18 0 36 2 41 10 27 7 -12 7 -27 0 -45z m-188 -189 c-18 -2 -48 -2 -65 0 -18 2 -4 4 32 4 36 0 50 -2 33 -4z"/>
<path d="M226 865 c7 -27 6 -28 -24 -22 -35 7 -67 -17 -43 -33 9 -5 10 -10 2 -14 -6 -4 -11 -2 -11 3 0 6 -4 11 -10 11 -5 0 -7 -15 -5 -32 4 -27 3 -28 -3 -8 -5 17 -10 21 -15 13 -5 -7 -3 -21 3 -32 5 -11 10 -31 10 -45 0 -32 17 -34 23 -3 2 12 2 3 0 -20 -3 -26 0 -43 6 -43 6 0 11 7 11 16 0 8 5 12 10 9 8 -5 7 -11 -1 -21 -6 -7 -8 -22 -4 -31 7 -17 8 -16 16 2 8 16 8 15 4 -7 -5 -27 10 -49 18 -26 2 7 2 3 1 -9 -4 -24 12 -41 19 -21 2 7 3 5 1 -6 -3 -19 15 -56 28 -56 3 0 8 6 11 13 2 6 3 3 1 -8 -2 -15 25 -49 99 -123 86 -86 106 -101 127 -97 22 5 22 4 5 -4 -21 -10 -15 -13 25 -13 18 1 20 -1 7 -5 -18 -4 -18 -6 -1 -24 11 -13 25 -17 43 -14 22 5 23 4 6 -4 -22 -10 -16 -13 30 -13 23 0 25 -1 7 -5 -33 -7 -17 -22 21 -19 17 2 24 1 14 -1 -35 -9 -6 -20 45 -17 49 2 50 2 13 -5 -41 -8 -38 -11 27 -29 21 -6 40 -6 43 -2 3 5 -3 11 -12 13 -10 2 -6 3 9 1 31 -4 60 22 39 36 -9 5 -10 10 -2 14 6 4 11 2 11 -3 0 -6 4 -11 10 -11 5 0 7 13 3 31 -6 31 -5 32 22 25 25 -6 27 -5 16 8 -9 10 -23 14 -40 11 -14 -3 -20 -2 -13 1 24 11 -17 45 -47 38 -17 -4 -22 -2 -13 3 20 15 -17 39 -58 37 -52 -2 -58 -5 -30 -15 21 -7 19 -8 -12 -4 -38 4 -54 -10 -20 -17 9 -3 -11 -4 -44 -4 -34 1 -58 4 -53 7 13 8 -25 40 -42 36 -8 -2 -11 -2 -6 0 17 10 5 24 -15 18 -14 -4 -18 -3 -11 2 9 6 -7 28 -56 77 -48 47 -71 64 -75 55 -3 -8 -3 -4 0 9 6 23 -10 31 -20 10 -3 -7 -4 -4 -1 7 2 11 -3 29 -11 40 -13 17 -16 18 -24 5 -6 -10 -7 -2 -3 25 3 22 10 45 15 52 5 6 7 22 5 35 -2 12 -2 17 0 11 10 -28 21 -10 21 31 -1 52 -23 90 -39 66 -7 -11 -8 -9 -4 10 3 15 -2 33 -10 45 -14 17 -17 18 -26 5 -7 -11 -8 -8 -4 11 4 17 1 30 -10 39 -15 12 -16 11 -9 -15z m41 -282 c-3 -10 -5 -4 -5 12 0 17 2 24 5 18 2 -7 2 -21 0 -30z m103 -167 c0 -3 -4 -8 -10 -11 -5 -3 -10 -1 -10 4 0 6 5 11 10 11 6 0 10 -2 10 -4z m20 -20 c0 -3 -4 -8 -10 -11 -5 -3 -10 -1 -10 4 0 6 5 11 10 11 6 0 10 -2 10 -4z m60 -16 c13 -11 18 -20 11 -20 -13 0 -41 24 -41 34 0 10 6 7 30 -14z m-40 -4 c0 -3 -4 -8 -10 -11 -5 -3 -10 -1 -10 4 0 6 5 11 10 11 6 0 10 -2 10 -4z m203 -113 c-7 -2 -21 -2 -30 0 -10 3 -4 5 12 5 17 0 24 -2 18 -5z"/>
<path d="M190 860 c0 -5 5 -10 10 -10 6 0 10 5 10 10 0 6 -4 10 -10 10 -5 0 -10 -4 -10 -10z"/>
<path d="M330 710 c0 -5 5 -10 10 -10 6 0 10 5 10 10 0 6 -4 10 -10 10 -5 0 -10 -4 -10 -10z"/>
<path d="M377 623 c-11 -10 -8 -53 3 -53 6 0 10 14 10 30 0 31 -2 35 -13 23z"/>
<path d="M850 205 c0 -8 5 -15 10 -15 6 0 10 7 10 15 0 8 -4 15 -10 15 -5 0 -10 -7 -10 -15z"/>
</g>
</g>
  <g id="id3:id3" transform="matrix(1.25,0,0,1.25,0.0,0.0)"><g transform="translate(0.000000,40.000000) scale(0.040000,-0.040000)" fill="#ffffff" stroke="none">
<path d="M0 500 l0 -500 500 0 500 0 0 500 0 500 -500 0 -500 0 0 -500z m253 473 c-13 -2 -33 -2 -45 0 -13 2 -3 4 22 4 25 0 35 -2 23 -4z m22 -33 c4 -6 11 -8 16 -5 5 3 7 0 4 -7 -2 -7 2 -22 11 -33 13 -17 16 -18 25 -5 7 11 8 9 4 -10 -3 -15 2 -33 10 -45 14 -17 17 -18 26 -5 8 12 9 10 4 -8 -4 -14 1 -32 14 -51 21 -29 29 -95 13 -105 -5 -3 -8 -30 -7 -62 l2 -56 88 -88 c72 -73 92 -88 114 -85 38 4 39 7 6 15 -28 7 -27 7 7 5 38 -3 63 11 31 17 -9 2 21 3 67 3 46 0 76 -2 66 -3 -30 -6 10 -42 43 -38 14 2 20 1 13 -1 -11 -4 -10 -9 3 -23 12 -14 26 -18 49 -14 21 3 25 2 13 -4 -17 -7 -17 -9 2 -26 11 -10 25 -15 32 -10 7 4 10 3 5 -4 -3 -6 -2 -13 4 -17 14 -9 13 -78 -2 -93 -8 -8 -8 -15 2 -27 8 -10 9 -15 1 -15 -6 0 -11 5 -11 12 0 7 -25 -12 -55 -42 -40 -39 -51 -56 -41 -60 8 -3 -31 -5 -87 -5 -56 0 -88 2 -72 5 43 8 14 22 -32 16 -21 -3 -30 -3 -20 0 26 8 10 24 -21 20 -15 -2 -21 -1 -14 1 23 8 1 23 -26 18 -23 -4 -24 -4 -7 4 22 10 14 14 -25 12 -22 -1 -22 0 -6 7 21 9 8 25 -16 19 -7 -2 -10 -2 -5 0 18 11 4 23 -20 17 -18 -3 -23 -2 -15 3 15 12 -37 66 -59 60 -8 -2 -11 -2 -6 0 13 8 7 25 -7 20 -10 -4 -13 -1 -9 9 5 14 -12 20 -20 7 -2 -5 -3 -3 -1 3 4 19 -93 108 -100 92 -3 -7 -3 -3 0 10 6 23 -10 31 -20 10 -3 -7 -3 -3 0 10 5 20 -9 32 -19 15 -2 -5 -2 -2 0 6 2 8 -4 22 -14 33 -13 14 -19 16 -25 6 -6 -9 -8 -7 -4 7 3 11 -2 29 -10 40 -13 17 -16 18 -25 5 -7 -11 -8 -8 -3 13 6 27 -10 40 -19 15 -2 -7 -2 -1 0 15 5 27 -12 39 -20 15 -2 -7 -3 -3 -1 9 2 12 -6 41 -17 65 -35 69 -38 79 -42 148 -2 36 -2 59 1 51 3 -8 23 5 58 40 39 38 50 55 41 62 -7 5 -4 6 10 2 12 -3 24 -1 28 5 8 13 82 13 90 0z m-248 -212 c-2 -18 -4 -4 -4 32 0 36 2 50 4 33 2 -18 2 -48 0 -65z m418 -8 c2 -13 0 -30 -5 -39 -7 -12 -9 -4 -10 28 0 46 7 51 15 11z m-398 -62 c-3 -7 -5 -2 -5 12 0 14 2 19 5 13 2 -7 2 -19 0 -25z m370 -20 c-3 -8 -6 -5 -6 6 -1 11 2 17 5 13 3 -3 4 -12 1 -19z m-350 -20 c-3 -8 -6 -5 -6 6 -1 11 2 17 5 13 3 -3 4 -12 1 -19z m20 -40 c-3 -8 -6 -5 -6 6 -1 11 2 17 5 13 3 -3 4 -12 1 -19z m383 -62 c0 -3 -4 -8 -10 -11 -5 -3 -10 -1 -10 4 0 6 5 11 10 11 6 0 10 -2 10 -4z m20 -20 c0 -3 -4 -8 -10 -11 -5 -3 -10 -1 -10 4 0 6 5 11 10 11 6 0 10 -2 10 -4z m20 -20 c0 -3 -4 -8 -10 -11 -5 -3 -10 -1 -10 4 0 6 5 11 10 11 6 0 10 -2 10 -4z m233 -43 c-13 -2 -35 -2 -50 0 -16 2 -5 4 22 4 28 0 40 -2 28 -4z m74 -39 c-3 -3 -12 -4 -19 -1 -8 3 -5 6 6 6 11 1 17 -2 13 -5z m60 -40 c-3 -3 -12 -4 -19 -1 -8 3 -5 6 6 6 11 1 17 -2 13 -5z m-527 -75 c0 -4 -7 -6 -15 -3 -8 4 -15 10 -15 15 0 4 7 6 15 3 8 -4 15 -10 15 -15z m631 -67 c-9 -25 -9 -24 -10 18 0 36 2 41 10 27 7 -12 7 -27 0 -45z m-188 -189 c-18 -2 -48 -2 -65 0 -18 2 -4 4 32 4 36 0 50 -2 33 -4z"/>
<path d="M226 865 c7 -27 6 -28 -24 -22 -35 7 -67 -17 -43 -33 9 -5 10 -10 2 -14 -6 -4 -11 -2 -11 3 0 6 -4 11 -10 11 -5 0 -7 -15 -5 -32 4 -27 3 -28 -3 -8 -5 17 -10 21 -15 13 -5 -7 -3 -21 3 -32 5 -11 10 -31 10 -45 0 -32 17 -34 23 -3 2 12 2 3 0 -20 -3 -26 0 -43 6 -43 6 0 11 7 11 16 0 8 5 12 10 9 8 -5 7 -11 -1 -21 -6 -7 -8 -22 -4 -31 7 -17 8 -16 16 2 8 16 8 15 4 -7 -5 -27 10 -49 18 -26 2 7 2 3 1 -9 -4 -24 12 -41 19 -21 2 7 3 5 1 -6 -3 -19 15 -56 28 -56 3 0 8 6 11 13 2 6 3 3 1 -8 -2 -15 25 -49 99 -123 86 -86 106 -101 127 -97 22 5 22 4 5 -4 -21 -10 -15 -13 25 -13 18 1 20 -1 7 -5 -18 -4 -18 -6 -1 -24 11 -13 25 -17 43 -14 22 5 23 4 6 -4 -22 -10 -16 -13 30 -13 23 0 25 -1 7 -5 -33 -7 -17 -22 21 -19 17 2 24 1 14 -1 -35 -9 -6 -20 45 -17 49 2 50 2 13 -5 -41 -8 -38 -11 27 -29 21 -6 40 -6 43 -2 3 5 -3 11 -12 13 -10 2 -6 3 9 1 31 -4 60 22 39 36 -9 5 -10 10 -2 14 6 4 11 2 11 -3 0 -6 4 -11 10 -11 5 0 7 13 3 31 -6 31 -5 32 22 25 25 -6 27 -5 16 8 -9 10 -23 14 -40 11 -14 -3 -20 -2 -13 1 24 11 -17 45 -47 38 -17 -4 -22 -2 -13 3 20 15 -17 39 -58 37 -52 -2 -58 -5 -30 -15 21 -7 19 -8 -12 -4 -38 4 -54 -10 -20 -17 9 -3 -11 -4 -44 -4 -34 1 -58 4 -53 7 13 8 -25 40 -42 36 -8 -2 -11 -2 -6 0 17 10 5 24 -15 18 -14 -4 -18 -3 -11 2 9 6 -7 28 -56 77 -48 47 -71 64 -75 55 -3 -8 -3 -4 0 9 6 23 -10 31 -20 10 -3 -7 -4 -4 -1 7 2 11 -3 29 -11 40 -13 17 -16 18 -24 5 -6 -10 -7 -2 -3 25 3 22 10 45 15 52 5 6 7 22 5 35 -2 12 -2 17 0 11 10 -28 21 -10 21 31 -1 52 -23 90 -39 66 -7 -11 -8 -9 -4 10 3 15 -2 33 -10 45 -14 17 -17 18 -26 5 -7 -11 -8 -8 -4 11 4 17 1 30 -10 39 -15 12 -16 11 -9 -15z m41 -282 c-3 -10 -5 -4 -5 12 0 17 2 24 5 18 2 -7 2 -21 0 -30z m103 -167 c0 -3 -4 -8 -10 -11 -5 -3 -10 -1 -10 4 0 6 5 11 10 11 6 0 10 -2 10 -4z m20 -20 c0 -3 -4 -8 -10 -11 -5 -3 -10 -1 -10 4 0 6 5 11 10 11 6 0 10 -2 10 -4z m60 -16 c13 -11 18 -20 11 -20 -13 0 -41 24 -41 34 0 10 6 7 30 -14z m-40 -4 c0 -3 -4 -8 -10 -11 -5 -3 -10 -1 -10 4 0 6 5 11 10 11 6 0 10 -2 10 -4z m203 -113 c-7 -2 -21 -2 -30 0 -10 3 -4 5 12 5 17 0 24 -2 18 -5z"/>
<path d="M190 860 c0 -5 5 -10 10 -10 6 0 10 5 10 10 0 6 -4 10 -10 10 -5 0 -10 -4 -10 -10z"/>
<path d="M330 710 c0 -5 5 -10 10 -10 6 0 10 5 10 10 0 6 -4 10 -10 10 -5 0 -10 -4 -10 -10z"/>
<path d="M377 623 c-11 -10 -8 -53 3 -53 6 0 10 14 10 30 0 31 -2 35 -13 23z"/>
<path d="M850 205 c0 -8 5 -15 10 -15 6 0 10 7 10 15 0 8 -4 15 -10 15 -5 0 -10 -7 -10 -15z"/>
</g>
</g>
  <g id="id4:id4" transform="matrix(1.25,0,0,1.25,0.0,0.0)"><g transform="translate(0.000000,40.000000) scale(0.040000,-0.040000)" fill="#ffffff" stroke="none">
<path d="M0 500 l0 -500 500 0 500 0 0 500 0 500 -500 0 -500 0 0 -500z m253 473 c-13 -2 -33 -2 -45 0 -13 2 -3 4 22 4 25 0 35 -2 23 -4z m22 -33 c4 -6 11 -8 16 -5 5 3 7 0 4 -7 -2 -7 2 -22 11 -33 13 -17 16 -18 25 -5 7 11 8 9 4 -10 -3 -15 2 -33 10 -45 14 -17 17 -18 26 -5 8 12 9 10 4 -8 -4 -14 1 -32 14 -51 21 -29 29 -95 13 -105 -5 -3 -8 -30 -7 -62 l2 -56 88 -88 c72 -73 92 -88 114 -85 38 4 39 7 6 15 -28 7 -27 7 7 5 38 -3 63 11 31 17 -9 2 21 3 67 3 46 0 76 -2 66 -3 -30 -6 10 -42 43 -38 14 2 20 1 13 -1 -11 -4 -10 -9 3 -23 12 -14 26 -18 49 -14 21 3 25 2 13 -4 -17 -7 -17 -9 2 -26 11 -10 25 -15 32 -10 7 4 10 3 5 -4 -3 -6 -2 -13 4 -17 14 -9 13 -78 -2 -93 -8 -8 -8 -15 2 -27 8 -10 9 -15 1 -15 -6 0 -11 5 -11 12 0 7 -25 -12 -55 -42 -40 -39 -51 -56 -41 -60 8 -3 -31 -5 -87 -5 -56 0 -88 2 -72 5 43 8 14 22 -32 16 -21 -3 -30 -3 -20 0 26 8 10 24 -21 20 -15 -2 -21 -1 -14 1 23 8 1 23 -26 18 -23 -4 -24 -4 -7 4 22 10 14 14 -25 12 -22 -1 -22 0 -6 7 21 9 8 25 -16 19 -7 -2 -10 -2 -5 0 18 11 4 23 -20 17 -18 -3 -23 -2 -15 3 15 12 -37 66 -59 60 -8 -2 -11 -2 -6 0 13 8 7 25 -7 20 -10 -4 -13 -1 -9 9 5 14 -12 20 -20 7 -2 -5 -3 -3 -1 3 4 19 -93 108 -100 92 -3 -7 -3 -3 0 10 6 23 -10 31 -20 10 -3 -7 -3 -3 0 10 5 20 -9 32 -19 15 -2 -5 -2 -2 0 6 2 8 -4 22 -14 33 -13 14 -19 16 -25 6 -6 -9 -8 -7 -4 7 3 11 -2 29 -10 40 -13 17 -16 18 -25 5 -7 -11 -8 -8 -3 13 6 27 -10 40 -19 15 -2 -7 -2 -1 0 15 5 27 -12 39 -20 15 -2 -7 -3 -3 -1 9 2 12 -6 41 -17 65 -35 69 -38 79 -42 148 -2 36 -2 59 1 51 3 -8 23 5 58 40 39 38 50 55 41 62 -7 5 -4 6 10 2 12 -3 24 -1 28 5 8 13 82 13 90 0z m-248 -212 c-2 -18 -4 -4 -4 32 0 36 2 50 4 33 2 -18 2 -48 0 -65z m418 -8 c2 -13 0 -30 -5 -39 -7 -12 -9 -4 -10 28 0 46 7 51 15 11z m-398 -62 c-3 -7 -5 -2 -5 12 0 14 2 19 5 13 2 -7 2 -19 0 -25z m370 -20 c-3 -8 -6 -5 -6 6 -1 11 2 17 5 13 3 -3 4 -12 1 -19z m-350 -20 c-3 -8 -6 -5 -6 6 -1 11 2 17 5 13 3 -3 4 -12 1 -19z m20 -40 c-3 -8 -6 -5 -6 6 -1 11 2 17 5 13 3 -3 4 -12 1 -19z m383 -62 c0 -3 -4 -8 -10 -11 -5 -3 -10 -1 -10 4 0 6 5 11 10 11 6 0 10 -2 10 -4z m20 -20 c0 -3 -4 -8 -10 -11 -5 -3 -10 -1 -10 4 0 6 5 11 10 11 6 0 10 -2 10 -4z m20 -20 c0 -3 -4 -8 -10 -11 -5 -3 -10 -1 -10 4 0 6 5 11 10 11 6 0 10 -2 10 -4z m233 -43 c-13 -2 -35 -2 -50 0 -16 2 -5 4 22 4 28 0 40 -2 28 -4z m74 -39 c-3 -3 -12 -4 -19 -1 -8 3 -5 6 6 6 11 1 17 -2 13 -5z m60 -40 c-3 -3 -12 -4 -19 -1 -8 3 -5 6 6 6 11 1 17 -2 13 -5z m-527 -75 c0 -4 -7 -6 -15 -3 -8 4 -15 10 -15 15 0 4 7 6 15 3 8 -4 15 -10 15 -15z m631 -67 c-9 -25 -9 -24 -10 18 0 36 2 41 10 27 7 -12 7 -27 0 -45z m-188 -189 c-18 -2 -48 -2 -65 0 -18 2 -4 4 32 4 36 0 50 -2 33 -4z"/>
<path d="M226 865 c7 -27 6 -28 -24 -22 -35 7 -67 -17 -43 -33 9 -5 10 -10 2 -14 -6 -4 -11 -2 -11 3 0 6 -4 11 -10 11 -5 0 -7 -15 -5 -32 4 -27 3 -28 -3 -8 -5 17 -10 21 -15 13 -5 -7 -3 -21 3 -32 5 -11 10 -31 10 -45 0 -32 17 -34 23 -3 2 12 2 3 0 -20 -3 -26 0 -43 6 -43 6 0 11 7 11 16 0 8 5 12 10 9 8 -5 7 -11 -1 -21 -6 -7 -8 -22 -4 -31 7 -17 8 -16 16 2 8 16 8 15 4 -7 -5 -27 10 -49 18 -26 2 7 2 3 1 -9 -4 -24 12 -41 19 -21 2 7 3 5 1 -6 -3 -19 15 -56 28 -56 3 0 8 6 11 13 2 6 3 3 1 -8 -2 -15 25 -49 99 -123 86 -86 106 -101 127 -97 22 5 22 4 5 -4 -21 -10 -15 -13 25 -13 18 1 20 -1 7 -5 -18 -4 -18 -6 -1 -24 11 -13 25 -17 43 -14 22 5 23 4 6 -4 -22 -10 -16 -13 30 -13 23 0 25 -1 7 -5 -33 -7 -17 -22 21 -19 17 2 24 1 14 -1 -35 -9 -6 -20 45 -17 49 2 50 2 13 -5 -41 -8 -38 -11 27 -29 21 -6 40 -6 43 -2 3 5 -3 11 -12 13 -10 2 -6 3 9 1 31 -4 60 22 39 36 -9 5 -10 10 -2 14 6 4 11 2 11 -3 0 -6 4 -11 10 -11 5 0 7 13 3 31 -6 31 -5 32 22 25 25 -6 27 -5 16 8 -9 10 -23 14 -40 11 -14 -3 -20 -2 -13 1 24 11 -17 45 -47 38 -17 -4 -22 -2 -13 3 20 15 -17 39 -58 37 -52 -2 -58 -5 -30 -15 21 -7 19 -8 -12 -4 -38 4 -54 -10 -20 -17 9 -3 -11 -4 -44 -4 -34 1 -58 4 -53 7 13 8 -25 40 -42 36 -8 -2 -11 -2 -6 0 17 10 5 24 -15 18 -14 -4 -18 -3 -11 2 9 6 -7 28 -56 77 -48 47 -71 64 -75 55 -3 -8 -3 -4 0 9 6 23 -10 31 -20 10 -3 -7 -4 -4 -1 7 2 11 -3 29 -11 40 -13 17 -16 18 -24 5 -6 -10 -7 -2 -3 25 3 22 10 45 15 52 5 6 7 22 5 35 -2 12 -2 17 0 11 10 -28 21 -10 21 31 -1 52 -23 90 -39 66 -7 -11 -8 -9 -4 10 3 15 -2 33 -10 45 -14 17 -17 18 -26 5 -7 -11 -8 -8 -4 11 4 17 1 30 -10 39 -15 12 -16 11 -9 -15z m41 -282 c-3 -10 -5 -4 -5 12 0 17 2 24 5 18 2 -7 2 -21 0 -30z m103 -167 c0 -3 -4 -8 -10 -11 -5 -3 -10 -1 -10 4 0 6 5 11 10 11 6 0 10 -2 10 -4z m20 -20 c0 -3 -4 -8 -10 -11 -5 -3 -10 -1 -10 4 0 6 5 11 10 11 6 0 10 -2 10 -4z m60 -16 c13 -11 18 -20 11 -20 -13 0 -41 24 -41 34 0 10 6 7 30 -14z m-40 -4 c0 -3 -4 -8 -10 -11 -5 -3 -10 -1 -10 4 0 6 5 11 10 11 6 0 10 -2 10 -4z m203 -113 c-7 -2 -21 -2 -30 0 -10 3 -4 5 12 5 17 0 24 -2 18 -5z"/>
<path d="M190 860 c0 -5 5 -10 10 -10 6 0 10 5 10 10 0 6 -4 10 -10 10 -5 0 -10 -4 -10 -10z"/>
<path d="M330 710 c0 -5 5 -10 10 -10 6 0 10 5 10 10 0 6 -4 10 -10 10 -5 0 -10 -4 -10 -10z"/>
<path d="M377 623 c-11 -10 -8 -53 3 -53 6 0 10 14 10 30 0 31 -2 35 -13 23z"/>
<path d="M850 205 c0 -8 5 -15 10 -15 6 0 10 7 10 15 0 8 -4 15 -10 15 -5 0 -10 -7 -10 -15z"/>
</g>
</g>
  <g id="id5:id5" transform="matrix(1.25,0,0,1.25,0.0,0.0)"><g transform="translate(0.000000,40.000000) scale(0.040000,-0.040000)" fill="#ffffff" stroke="none">
<path d="M0 500 l0 -500 500 0 500 0 0 500 0 500 -500 0 -500 0 0 -500z m253 473 c-13 -2 -33 -2 -45 0 -13 2 -3 4 22 4 25 0 35 -2 23 -4z m22 -33 c4 -6 11 -8 16 -5 5 3 7 0 4 -7 -2 -7 2 -22 11 -33 13 -17 16 -18 25 -5 7 11 8 9 4 -10 -3 -15 2 -33 10 -45 14 -17 17 -18 26 -5 8 12 9 10 4 -8 -4 -14 1 -32 14 -51 21 -29 29 -95 13 -105 -5 -3 -8 -30 -7 -62 l2 -56 88 -88 c72 -73 92 -88 114 -85 38 4 39 7 6 15 -28 7 -27 7 7 5 38 -3 63 11 31 17 -9 2 21 3 67 3 46 0 76 -2 66 -3 -30 -6 10 -42 43 -38 14 2 20 1 13 -1 -11 -4 -10 -9 3 -23 12 -14 26 -18 49 -14 21 3 25 2 13 -4 -17 -7 -17 -9 2 -26 11 -10 25 -15 32 -10 7 4 10 3 5 -4 -3 -6 -2 -13 4 -17 14 -9 13 -78 -2 -93 -8 -8 -8 -15 2 -27 8 -10 9 -15 1 -15 -6 0 -11 5 -11 12 0 7 -25 -12 -55 -42 -40 -39 -51 -56 -41 -60 8 -3 -31 -5 -87 -5 -56 0 -88 2 -72 5 43 8 14 22 -32 16 -21 -3 -30 -3 -20 0 26 8 10 24 -21 20 -15 -2 -21 -1 -14 1 23 8 1 23 -26 18 -23 -4 -24 -4 -7 4 22 10 14 14 -25 12 -22 -1 -22 0 -6 7 21 9 8 25 -16 19 -7 -2 -10 -2 -5 0 18 11 4 23 -20 17 -18 -3 -23 -2 -15 3 15 12 -37 66 -59 60 -8 -2 -11 -2 -6 0 13 8 7 25 -7 20 -10 -4 -13 -1 -9 9 5 14 -12 20 -20 7 -2 -5 -3 -3 -1 3 4 19 -93 108 -100 92 -3 -7 -3 -3 0 10 6 23 -10 31 -20 10 -3 -7 -3 -3 0 10 5 20 -9 32 -19 15 -2 -5 -2 -2 0 6 2 8 -4 22 -14 33 -13 14 -19 16 -25 6 -6 -9 -8 -7 -4 7 3 11 -2 29 -10 40 -13 17 -16 18 -25 5 -7 -11 -8 -8 -3 13 6 27 -10 40 -19 15 -2 -7 -2 -1 0 15 5 27 -12 39 -20 15 -2 -7 -3 -3 -1 9 2 12 -6 41 -17 65 -35 69 -38 79 -42 148 -2 36 -2 59 1 51 3 -8 23 5 58 40 39 38 50 55 41 62 -7 5 -4 6 10 2 12 -3 24 -1 28 5 8 13 82 13 90 0z m-248 -212 c-2 -18 -4 -4 -4 32 0 36 2 50 4 33 2 -18 2 -48 0 -65z m418 -8 c2 -13 0 -30 -5 -39 -7 -12 -9 -4 -10 28 0 46 7 51 15 11z m-398 -62 c-3 -7 -5 -2 -5 12 0 14 2 19 5 13 2 -7 2 -19 0 -25z m370 -20 c-3 -8 -6 -5 -6 6 -1 11 2 17 5 13 3 -3 4 -12 1 -19z m-350 -20 c-3 -8 -6 -5 -6 6 -1 11 2 17 5 13 3 -3 4 -12 1 -19z m20 -40 c-3 -8 -6 -5 -6 6 -1 11 2 17 5 13 3 -3 4 -12 1 -19z m383 -62 c0 -3 -4 -8 -10 -11 -5 -3 -10 -1 -10 4 0 6 5 11 10 11 6 0 10 -2 10 -4z m20 -20 c0 -3 -4 -8 -10 -11 -5 -3 -10 -1 -10 4 0 6 5 11 10 11 6 0 10 -2 10 -4z m20 -20 c0 -3 -4 -8 -10 -11 -5 -3 -10 -1 -10 4 0 6 5 11 10 11 6 0 10 -2 10 -4z m233 -43 c-13 -2 -35 -2 -50 0 -16 2 -5 4 22 4 28 0 40 -2 28 -4z m74 -39 c-3 -3 -12 -4 -19 -1 -8 3 -5 6 6 6 11 1 17 -2 13 -5z m60 -40 c-3 -3 -12 -4 -19 -1 -8 3 -5 6 6 6 11 1 17 -2 13 -5z m-527 -75 c0 -4 -7 -6 -15 -3 -8 4 -15 10 -15 15 0 4 7 6 15 3 8 -4 15 -10 15 -15z m631 -67 c-9 -25 -9 -24 -10 18 0 36 2 41 10 27 7 -12 7 -27 0 -45z m-188 -189 c-18 -2 -48 -2 -65 0 -18 2 -4 4 32 4 36 0 50 -2 33 -4z"/>
<path d="M226 865 c7 -27 6 -28 -24 -22 -35 7 -67 -17 -43 -33 9 -5 10 -10 2 -14 -6 -4 -11 -2 -11 3 0 6 -4 11 -10 11 -5 0 -7 -15 -5 -32 4 -27 3 -28 -3 -8 -5 17 -10 21 -15 13 -5 -7 -3 -21 3 -32 5 -11 10 -31 10 -45 0 -32 17 -34 23 -3 2 12 2 3 0 -20 -3 -26 0 -43 6 -43 6 0 11 7 11 16 0 8 5 12 10 9 8 -5 7 -11 -1 -21 -6 -7 -8 -22 -4 -31 7 -17 8 -16 16 2 8 16 8 15 4 -7 -5 -27 10 -49 18 -26 2 7 2 3 1 -9 -4 -24 12 -41 19 -21 2 7 3 5 1 -6 -3 -19 15 -56 28 -56 3 0 8 6 11 13 2 6 3 3 1 -8 -2 -15 25 -49 99 -123 86 -86 106 -101 127 -97 22 5 22 4 5 -4 -21 -10 -15 -13 25 -13 18 1 20 -1 7 -5 -18 -4 -18 -6 -1 -24 11 -13 25 -17 43 -14 22 5 23 4 6 -4 -22 -10 -16 -13 30 -13 23 0 25 -1 7 -5 -33 -7 -17 -22 21 -19 17 2 24 1 14 -1 -35 -9 -6 -20 45 -17 49 2 50 2 13 -5 -41 -8 -38 -11 27 -29 21 -6 40 -6 43 -2 3 5 -3 11 -12 13 -10 2 -6 3 9 1 31 -4 60 22 39 36 -9 5 -10 10 -2 14 6 4 11 2 11 -3 0 -6 4 -11 10 -11 5 0 7 13 3 31 -6 31 -5 32 22 25 25 -6 27 -5 16 8 -9 10 -23 14 -40 11 -14 -3 -20 -2 -13 1 24 11 -17 45 -47 38 -17 -4 -22 -2 -13 3 20 15 -17 39 -58 37 -52 -2 -58 -5 -30 -15 21 -7 19 -8 -12 -4 -38 4 -54 -10 -20 -17 9 -3 -11 -4 -44 -4 -34 1 -58 4 -53 7 13 8 -25 40 -42 36 -8 -2 -11 -2 -6 0 17 10 5 24 -15 18 -14 -4 -18 -3 -11 2 9 6 -7 28 -56 77 -48 47 -71 64 -75 55 -3 -8 -3 -4 0 9 6 23 -10 31 -20 10 -3 -7 -4 -4 -1 7 2 11 -3 29 -11 40 -13 17 -16 18 -24 5 -6 -10 -7 -2 -3 25 3 22 10 45 15 52 5 6 7 22 5 35 -2 12 -2 17 0 11 10 -28 21 -10 21 31 -1 52 -23 90 -39 66 -7 -11 -8 -9 -4 10 3 15 -2 33 -10 45 -14 17 -17 18 -26 5 -7 -11 -8 -8 -4 11 4 17 1 30 -10 39 -15 12 -16 11 -9 -15z m41 -282 c-3 -10 -5 -4 -5 12 0 17 2 24 5 18 2 -7 2 -21 0 -30z m103 -167 c0 -3 -4 -8 -10 -11 -5 -3 -10 -1 -10 4 0 6 5 11 10 11 6 0 10 -2 10 -4z m20 -20 c0 -3 -4 -8 -10 -11 -5 -3 -10 -1 -10 4 0 6 5 11 10 11 6 0 10 -2 10 -4z m60 -16 c13 -11 18 -20 11 -20 -13 0 -41 24 -41 34 0 10 6 7 30 -14z m-40 -4 c0 -3 -4 -8 -10 -11 -5 -3 -10 -1 -10 4 0 6 5 11 10 11 6 0 10 -2 10 -4z m203 -113 c-7 -2 -21 -2 -30 0 -10 3 -4 5 12 5 17 0 24 -2 18 -5z"/>
<path d="M190 860 c0 -5 5 -10 10 -10 6 0 10 5 10 10 0 6 -4 10 -10 10 -5 0 -10 -4 -10 -10z"/>
<path d="M330 710 c0 -5 5 -10 10 -10 6 0 10 5 10 10 0 6 -4 10 -10 10 -5 0 -10 -4 -10 -10z"/>
<path d="M377 623 c-11 -10 -8 -53 3 -53 6 0 10 14 10 30 0 31 -2 35 -13 23z"/>
<path d="M850 205 c0 -8 5 -15 10 -15 6 0 10 7 10 15 0 8 -4 15 -10 15 -5 0 -10 -7 -10 -15z"/>
</g>
</g>
  <g id="id6:id6" transform="matrix(1.25,0,0,1.25,0.0,0.0)"><g transform="translate(0.000000,40.000000) scale(0.040000,-0.040000)" fill="#ffffff" stroke="none">
<path d="M0 500 l0 -500 500 0 500 0 0 500 0 500 -500 0 -500 0 0 -500z m253 473 c-13 -2 -33 -2 -45 0 -13 2 -3 4 22 4 25 0 35 -2 23 -4z m22 -33 c4 -6 11 -8 16 -5 5 3 7 0 4 -7 -2 -7 2 -22 11 -33 13 -17 16 -18 25 -5 7 11 8 9 4 -10 -3 -15 2 -33 10 -45 14 -17 17 -18 26 -5 8 12 9 10 4 -8 -4 -14 1 -32 14 -51 21 -29 29 -95 13 -105 -5 -3 -8 -30 -7 -62 l2 -56 88 -88 c72 -73 92 -88 114 -85 38 4 39 7 6 15 -28 7 -27 7 7 5 38 -3 63 11 31 17 -9 2 21 3 67 3 46 0 76 -2 66 -3 -30 -6 10 -42 43 -38 14 2 20 1 13 -1 -11 -4 -10 -9 3 -23 12 -14 26 -18 49 -14 21 3 25 2 13 -4 -17 -7 -17 -9 2 -26 11 -10 25 -15 32 -10 7 4 10 3 5 -4 -3 -6 -2 -13 4 -17 14 -9 13 -78 -2 -93 -8 -8 -8 -15 2 -27 8 -10 9 -15 1 -15 -6 0 -11 5 -11 12 0 7 -25 -12 -55 -42 -40 -39 -51 -56 -41 -60 8 -3 -31 -5 -87 -5 -56 0 -88 2 -72 5 43 8 14 22 -32 16 -21 -3 -30 -3 -20 0 26 8 10 24 -21 20 -15 -2 -21 -1 -14 1 23 8 1 23 -26 18 -23 -4 -24 -4 -7 4 22 10 14 14 -25 12 -22 -1 -22 0 -6 7 21 9 8 25 -16 19 -7 -2 -10 -2 -5 0 18 11 4 23 -20 17 -18 -3 -23 -2 -15 3 15 12 -37 66 -59 60 -8 -2 -11 -2 -6 0 13 8 7 25 -7 20 -10 -4 -13 -1 -9 9 5 14 -12 20 -20 7 -2 -5 -3 -3 -1 3 4 19 -93 108 -100 92 -3 -7 -3 -3 0 10 6 23 -10 31 -20 10 -3 -7 -3 -3 0 10 5 20 -9 32 -19 15 -2 -5 -2 -2 0 6 2 8 -4 22 -14 33 -13 14 -19 16 -25 6 -6 -9 -8 -7 -4 7 3 11 -2 29 -10 40 -13 17 -16 18 -25 5 -7 -11 -8 -8 -3 13 6 27 -10 40 -19 15 -2 -7 -2 -1 0 15 5 27 -12 39 -20 15 -2 -7 -3 -3 -1 9 2 12 -6 41 -17 65 -35 69 -38 79 -42 148 -2 36 -2 59 1 51 3 -8 23 5 58 40 39 38 50 55 41 62 -7 5 -4 6 10 2 12 -3 24 -1 28 5 8 13 82 13 90 0z m-248 -212 c-2 -18 -4 -4 -4 32 0 36 2 50 4 33 2 -18 2 -48 0 -65z m418 -8 c2 -13 0 -30 -5 -39 -7 -12 -9 -4 -10 28 0 46 7 51 15 11z m-398 -62 c-3 -7 -5 -2 -5 12 0 14 2 19 5 13 2 -7 2 -19 0 -25z m370 -20 c-3 -8 -6 -5 -6 6 -1 11 2 17 5 13 3 -3 4 -12 1 -19z m-350 -20 c-3 -8 -6 -5 -6 6 -1 11 2 17 5 13 3 -3 4 -12 1 -19z m20 -40 c-3 -8 -6 -5 -6 6 -1 11 2 17 5 13 3 -3 4 -12 1 -19z m383 -62 c0 -3 -4 -8 -10 -11 -5 -3 -10 -1 -10 4 0 6 5 11 10 11 6 0 10 -2 10 -4z m20 -20 c0 -3 -4 -8 -10 -11 -5 -3 -10 -1 -10 4 0 6 5 11 10 11 6 0 10 -2 10 -4z m20 -20 c0 -3 -4 -8 -10 -11 -5 -3 -10 -1 -10 4 0 6 5 11 10 11 6 0 10 -2 10 -4z m233 -43 c-13 -2 -35 -2 -50 0 -16 2 -5 4 22 4 28 0 40 -2 28 -4z m74 -39 c-3 -3 -12 -4 -19 -1 -8 3 -5 6 6 6 11 1 17 -2 13 -5z m60 -40 c-3 -3 -12 -4 -19 -1 -8 3 -5 6 6 6 11 1 17 -2 13 -5z m-527 -75 c0 -4 -7 -6 -15 -3 -8 4 -15 10 -15 15 0 4 7 6 15 3 8 -4 15 -10 15 -15z m631 -67 c-9 -25 -9 -24 -10 18 0 36 2 41 10 27 7 -12 7 -27 0 -45z m-188 -189 c-18 -2 -48 -2 -65 0 -18 2 -4 4 32 4 36 0 50 -2 33 -4z"/>
<path d="M226 865 c7 -27 6 -28 -24 -22 -35 7 -67 -17 -43 -33 9 -5 10 -10 2 -14 -6 -4 -11 -2 -11 3 0 6 -4 11 -10 11 -5 0 -7 -15 -5 -32 4 -27 3 -28 -3 -8 -5 17 -10 21 -15 13 -5 -7 -3 -21 3 -32 5 -11 10 -31 10 -45 0 -32 17 -34 23 -3 2 12 2 3 0 -20 -3 -26 0 -43 6 -43 6 0 11 7 11 16 0 8 5 12 10 9 8 -5 7 -11 -1 -21 -6 -7 -8 -22 -4 -31 7 -17 8 -16 16 2 8 16 8 15 4 -7 -5 -27 10 -49 18 -26 2 7 2 3 1 -9 -4 -24 12 -41 19 -21 2 7 3 5 1 -6 -3 -19 15 -56 28 -56 3 0 8 6 11 13 2 6 3 3 1 -8 -2 -15 25 -49 99 -123 86 -86 106 -101 127 -97 22 5 22 4 5 -4 -21 -10 -15 -13 25 -13 18 1 20 -1 7 -5 -18 -4 -18 -6 -1 -24 11 -13 25 -17 43 -14 22 5 23 4 6 -4 -22 -10 -16 -13 30 -13 23 0 25 -1 7 -5 -33 -7 -17 -22 21 -19 17 2 24 1 14 -1 -35 -9 -6 -20 45 -17 49 2 50 2 13 -5 -41 -8 -38 -11 27 -29 21 -6 40 -6 43 -2 3 5 -3 11 -12 13 -10 2 -6 3 9 1 31 -4 60 22 39 36 -9 5 -10 10 -2 14 6 4 11 2 11 -3 0 -6 4 -11 10 -11 5 0 7 13 3 31 -6 31 -5 32 22 25 25 -6 27 -5 16 8 -9 10 -23 14 -40 11 -14 -3 -20 -2 -13 1 24 11 -17 45 -47 38 -17 -4 -22 -2 -13 3 20 15 -17 39 -58 37 -52 -2 -58 -5 -30 -15 21 -7 19 -8 -12 -4 -38 4 -54 -10 -20 -17 9 -3 -11 -4 -44 -4 -34 1 -58 4 -53 7 13 8 -25 40 -42 36 -8 -2 -11 -2 -6 0 17 10 5 24 -15 18 -14 -4 -18 -3 -11 2 9 6 -7 28 -56 77 -48 47 -71 64 -75 55 -3 -8 -3 -4 0 9 6 23 -10 31 -20 10 -3 -7 -4 -4 -1 7 2 11 -3 29 -11 40 -13 17 -16 18 -24 5 -6 -10 -7 -2 -3 25 3 22 10 45 15 52 5 6 7 22 5 35 -2 12 -2 17 0 11 10 -28 21 -10 21 31 -1 52 -23 90 -39 66 -7 -11 -8 -9 -4 10 3 15 -2 33 -10 45 -14 17 -17 18 -26 5 -7 -11 -8 -8 -4 11 4 17 1 30 -10 39 -15 12 -16 11 -9 -15z m41 -282 c-3 -10 -5 -4 -5 12 0 17 2 24 5 18 2 -7 2 -21 0 -30z m103 -167 c0 -3 -4 -8 -10 -11 -5 -3 -10 -1 -10 4 0 6 5 11 10 11 6 0 10 -2 10 -4z m20 -20 c0 -3 -4 -8 -10 -11 -5 -3 -10 -1 -10 4 0 6 5 11 10 11 6 0 10 -2 10 -4z m60 -16 c13 -11 18 -20 11 -20 -13 0 -41 24 -41 34 0 10 6 7 30 -14z m-40 -4 c0 -3 -4 -8 -10 -11 -5 -3 -10 -1 -10 4 0 6 5 11 10 11 6 0 10 -2 10 -4z m203 -113 c-7 -2 -21 -2 -30 0 -10 3 -4 5 12 5 17 0 24 -2 18 -5z"/>
<path d="M190 860 c0 -5 5 -10 10 -10 6 0 10 5 10 10 0 6 -4 10 -10 10 -5 0 -10 -4 -10 -10z"/>
<path d="M330 710 c0 -5 5 -10 10 -10 6 0 10 5 10 10 0 6 -4 10 -10 10 -5 0 -10 -4 -10 -10z"/>
<path d="M377 623 c-11 -10 -8 -53 3 -53 6 0 10 14 10 30 0 31 -2 35 -13 23z"/>
<path d="M850 205 c0 -8 5 -15 10 -15 6 0 10 7 10 15 0 8 -4 15 -10 15 -5 0 -10 -7 -10 -15z"/>
</g>
</g>
  <g id="id7:id7" transform="matrix(1.25,0,0,1.25,0.0,0.0)"><g transform="translate(0.000000,40.000000) scale(0.040000,-0.040000)" fill="#ffffff" stroke="none">
<path d="M0 500 l0 -500 500 0 500 0 0 500 0 500 -500 0 -500 0 0 -500z m253 473 c-13 -2 -33 -2 -45 0 -13 2 -3 4 22 4 25 0 35 -2 23 -4z m22 -33 c4 -6 11 -8 16 -5 5 3 7 0 4 -7 -2 -7 2 -22 11 -33 13 -17 16 -18 25 -5 7 11 8 9 4 -10 -3 -15 2 -33 10 -45 14 -17 17 -18 26 -5 8 12 9 10 4 -8 -4 -14 1 -32 14 -51 21 -29 29 -95 13 -105 -5 -3 -8 -30 -7 -62 l2 -56 88 -88 c72 -73 92 -88 114 -85 38 4 39 7 6 15 -28 7 -27 7 7 5 38 -3 63 11 31 17 -9 2 21 3 67 3 46 0 76 -2 66 -3 -30 -6 10 -42 43 -38 14 2 20 1 13 -1 -11 -4 -10 -9 3 -23 12 -14 26 -18 49 -14 21 3 25 2 13 -4 -17 -7 -17 -9 2 -26 11 -10 25 -15 32 -10 7 4 10 3 5 -4 -3 -6 -2 -13 4 -17 14 -9 13 -78 -2 -93 -8 -8 -8 -15 2 -27 8 -10 9 -15 1 -15 -6 0 -11 5 -11 12 0 7 -25 -12 -55 -42 -40 -39 -51 -56 -41 -60 8 -3 -31 -5 -87 -5 -56 0 -88 2 -72 5 43 8 14 22 -32 16 -21 -3 -30 -3 -20 0 26 8 10 24 -21 20 -15 -2 -21 -1 -14 1 23 8 1 23 -26 18 -23 -4 -24 -4 -7 4 22 10 14 14 -25 12 -22 -1 -22 0 -6 7 21 9 8 25 -16 19 -7 -2 -10 -2 -5 0 18 11 4 23 -20 17 -18 -3 -23 -2 -15 3 15 12 -37 66 -59 60 -8 -2 -11 -2 -6 0 13 8 7 25 -7 20 -10 -4 -13 -1 -9 9 5 14 -12 20 -20 7 -2 -5 -3 -3 -1 3 4 19 -93 108 -100 92 -3 -7 -3 -3 0 10 6 23 -10 31 -20 10 -3 -7 -3 -3 0 10 5 20 -9 32 -19 15 -2 -5 -2 -2 0 6 2 8 -4 22 -14 33 -13 14 -19 16 -25 6 -6 -9 -8 -7 -4 7 3 11 -2 29 -10 40 -13 17 -16 18 -25 5 -7 -11 -8 -8 -3 13 6 27 -10 40 -19 15 -2 -7 -2 -1 0 15 5 27 -12 39 -20 15 -2 -7 -3 -3 -1 9 2 12 -6 41 -17 65 -35 69 -38 79 -42 148 -2 36 -2 59 1 51 3 -8 23 5 58 40 39 38 50 55 41 62 -7 5 -4 6 10 2 12 -3 24 -1 28 5 8 13 82 13 90 0z m-248 -212 c-2 -18 -4 -4 -4 32 0 36 2 50 4 33 2 -18 2 -48 0 -65z m418 -8 c2 -13 0 -30 -5 -39 -7 -12 -9 -4 -10 28 0 46 7 51 15 11z m-398 -62 c-3 -7 -5 -2 -5 12 0 14 2 19 5 13 2 -7 2 -19 0 -25z m370 -20 c-3 -8 -6 -5 -6 6 -1 11 2 17 5 13 3 -3 4 -12 1 -19z m-350 -20 c-3 -8 -6 -5 -6 6 -1 11 2 17 5 13 3 -3 4 -12 1 -19z m20 -40 c-3 -8 -6 -5 -6 6 -1 11 2 17 5 13 3 -3 4 -12 1 -19z m383 -62 c0 -3 -4 -8 -10 -11 -5 -3 -10 -1 -10 4 0 6 5 11 10 11 6 0 10 -2 10 -4z m20 -20 c0 -3 -4 -8 -10 -11 -5 -3 -10 -1 -10 4 0 6 5 11 10 11 6 0 10 -2 10 -4z m20 -20 c0 -3 -4 -8 -10 -11 -5 -3 -10 -1 -10 4 0 6 5 11 10 11 6 0 10 -2 10 -4z m233 -43 c-13 -2 -35 -2 -50 0 -16 2 -5 4 22 4 28 0 40 -2 28 -4z m74 -39 c-3 -3 -12 -4 -19 -1 -8 3 -5 6 6 6 11 1 17 -2 13 -5z m60 -40 c-3 -3 -12 -4 -19 -1 -8 3 -5 6 6 6 11 1 17 -2 13 -5z m-527 -75 c0 -4 -7 -6 -15 -3 -8 4 -15 10 -15 15 0 4 7 6 15 3 8 -4 15 -10 15 -15z m631 -67 c-9 -25 -9 -24 -10 18 0 36 2 41 10 27 7 -12 7 -27 0 -45z m-188 -189 c-18 -2 -48 -2 -65 0 -18 2 -4 4 32 4 36 0 50 -2 33 -4z"/>
<path d="M226 865 c7 -27 6 -28 -24 -22 -35 7 -67 -17 -43 -33 9 -5 10 -10 2 -14 -6 -4 -11 -2 -11 3 0 6 -4 11 -10 11 -5 0 -7 -15 -5 -32 4 -27 3 -28 -3 -8 -5 17 -10 21 -15 13 -5 -7 -3 -21 3 -32 5 -11 10 -31 10 -45 0 -32 17 -34 23 -3 2 12 2 3 0 -20 -3 -26 0 -43 6 -43 6 0 11 7 11 16 0 8 5 12 10 9 8 -5 7 -11 -1 -21 -6 -7 -8 -22 -4 -31 7 -17 8 -16 16 2 8 16 8 15 4 -7 -5 -27 10 -49 18 -26 2 7 2 3 1 -9 -4 -24 12 -41 19 -21 2 7 3 5 1 -6 -3 -19 15 -56 28 -56 3 0 8 6 11 13 2 6 3 3 1 -8 -2 -15 25 -49 99 -123 86 -86 106 -101 127 -97 22 5 22 4 5 -4 -21 -10 -15 -13 25 -13 18 1 20 -1 7 -5 -18 -4 -18 -6 -1 -24 11 -13 25 -17 43 -14 22 5 23 4 6 -4 -22 -10 -16 -13 30 -13 23 0 25 -1 7 -5 -33 -7 -17 -22 21 -19 17 2 24 1 14 -1 -35 -9 -6 -20 45 -17 49 2 50 2 13 -5 -41 -8 -38 -11 27 -29 21 -6 40 -6 43 -2 3 5 -3 11 -12 13 -10 2 -6 3 9 1 31 -4 60 22 39 36 -9 5 -10 10 -2 14 6 4 11 2 11 -3 0 -6 4 -11 10 -11 5 0 7 13 3 31 -6 31 -5 32 22 25 25 -6 27 -5 16 8 -9 10 -23 14 -40 11 -14 -3 -20 -2 -13 1 24 11 -17 45 -47 38 -17 -4 -22 -2 -13 3 20 15 -17 39 -58 37 -52 -2 -58 -5 -30 -15 21 -7 19 -8 -12 -4 -38 4 -54 -10 -20 -17 9 -3 -11 -4 -44 -4 -34 1 -58 4 -53 7 13 8 -25 40 -42 36 -8 -2 -11 -2 -6 0 17 10 5 24 -15 18 -14 -4 -18 -3 -11 2 9 6 -7 28 -56 77 -48 47 -71 64 -75 55 -3 -8 -3 -4 0 9 6 23 -10 31 -20 10 -3 -7 -4 -4 -1 7 2 11 -3 29 -11 40 -13 17 -16 18 -24 5 -6 -10 -7 -2 -3 25 3 22 10 45 15 52 5 6 7 22 5 35 -2 12 -2 17 0 11 10 -28 21 -10 21 31 -1 52 -23 90 -39 66 -7 -11 -8 -9 -4 10 3 15 -2 33 -10 45 -14 17 -17 18 -26 5 -7 -11 -8 -8 -4 11 4 17 1 30 -10 39 -15 12 -16 11 -9 -15z m41 -282 c-3 -10 -5 -4 -5 12 0 17 2 24 5 18 2 -7 2 -21 0 -30z m103 -167 c0 -3 -4 -8 -10 -11 -5 -3 -10 -1 -10 4 0 6 5 11 10 11 6 0 10 -2 10 -4z m20 -20 c0 -3 -4 -8 -10 -11 -5 -3 -10 -1 -10 4 0 6 5 11 10 11 6 0 10 -2 10 -4z m60 -16 c13 -11 18 -20 11 -20 -13 0 -41 24 -41 34 0 10 6 7 30 -14z m-40 -4 c0 -3 -4 -8 -10 -11 -5 -3 -10 -1 -10 4 0 6 5 11 10 11 6 0 10 -2 10 -4z m203 -113 c-7 -2 -21 -2 -30 0 -10 3 -4 5 12 5 17 0 24 -2 18 -5z"/>
<path d="M190 860 c0 -5 5 -10 10 -10 6 0 10 5 10 10 0 6 -4 10 -10 10 -5 0 -10 -4 -10 -10z"/>
<path d="M330 710 c0 -5 5 -10 10 -10 6 0 10 5 10 10 0 6 -4 10 -10 10 -5 0 -10 -4 -10 -10z"/>
<path d="M377 623 c-11 -10 -8 -53 3 -53 6 0 10 14 10 30 0 31 -2 35 -13 23z"/>
<path d="M850 205 c0 -8 5 -15 10 -15 6 0 10 7 10 15 0 8 -4 15 -10 15 -5 0 -10 -7 -10 -15z"/>
</g>
</g>
  <g id="id8:id8" transform="matrix(1.25,0,0,1.25,0.0,0.0)"><g transform="translate(0.000000,40.000000) scale(0.040000,-0.040000)" fill="#000000" stroke="none">
<path d="M0 500 l0 -500 500 0 500 0 0 500 0 500 -500 0 -500 0 0 -500z m253 473 c-13 -2 -33 -2 -45 0 -13 2 -3 4 22 4 25 0 35 -2 23 -4z m22 -33 c4 -6 11 -8 16 -5 5 3 7 0 4 -7 -2 -7 2 -22 11 -33 13 -17 16 -18 25 -5 7 11 8 9 4 -10 -3 -15 2 -33 10 -45 14 -17 17 -18 26 -5 8 12 9 10 4 -8 -4 -14 1 -32 14 -51 21 -29 29 -95 13 -105 -5 -3 -8 -30 -7 -62 l2 -56 88 -88 c72 -73 92 -88 114 -85 38 4 39 7 6 15 -28 7 -27 7 7 5 38 -3 63 11 31 17 -9 2 21 3 67 3 46 0 76 -2 66 -3 -30 -6 10 -42 43 -38 14 2 20 1 13 -1 -11 -4 -10 -9 3 -23 12 -14 26 -18 49 -14 21 3 25 2 13 -4 -17 -7 -17 -9 2 -26 11 -10 25 -15 32 -10 7 4 10 3 5 -4 -3 -6 -2 -13 4 -17 14 -9 13 -78 -2 -93 -8 -8 -8 -15 2 -27 8 -10 9 -15 1 -15 -6 0 -11 5 -11 12 0 7 -25 -12 -55 -42 -40 -39 -51 -56 -41 -60 8 -3 -31 -5 -87 -5 -56 0 -88 2 -72 5 43 8 14 22 -32 16 -21 -3 -30 -3 -20 0 26 8 10 24 -21 20 -15 -2 -21 -1 -14 1 23 8 1 23 -26 18 -23 -4 -24 -4 -7 4 22 10 14 14 -25 12 -22 -1 -22 0 -6 7 21 9 8 25 -16 19 -7 -2 -10 -2 -5 0 18 11 4 23 -20 17 -18 -3 -23 -2 -15 3 15 12 -37 66 -59 60 -8 -2 -11 -2 -6 0 13 8 7 25 -7 20 -10 -4 -13 -1 -9 9 5 14 -12 20 -20 7 -2 -5 -3 -3 -1 3 4 19 -93 108 -100 92 -3 -7 -3 -3 0 10 6 23 -10 31 -20 10 -3 -7 -3 -3 0 10 5 20 -9 32 -19 15 -2 -5 -2 -2 0 6 2 8 -4 22 -14 33 -13 14 -19 16 -25 6 -6 -9 -8 -7 -4 7 3 11 -2 29 -10 40 -13 17 -16 18 -25 5 -7 -11 -8 -8 -3 13 6 27 -10 40 -19 15 -2 -7 -2 -1 0 15 5 27 -12 39 -20 15 -2 -7 -3 -3 -1 9 2 12 -6 41 -17 65 -35 69 -38 79 -42 148 -2 36 -2 59 1 51 3 -8 23 5 58 40 39 38 50 55 41 62 -7 5 -4 6 10 2 12 -3 24 -1 28 5 8 13 82 13 90 0z m-248 -212 c-2 -18 -4 -4 -4 32 0 36 2 50 4 33 2 -18 2 -48 0 -65z m418 -8 c2 -13 0 -30 -5 -39 -7 -12 -9 -4 -10 28 0 46 7 51 15 11z m-398 -62 c-3 -7 -5 -2 -5 12 0 14 2 19 5 13 2 -7 2 -19 0 -25z m370 -20 c-3 -8 -6 -5 -6 6 -1 11 2 17 5 13 3 -3 4 -12 1 -19z m-350 -20 c-3 -8 -6 -5 -6 6 -1 11 2 17 5 13 3 -3 4 -12 1 -19z m20 -40 c-3 -8 -6 -5 -6 6 -1 11 2 17 5 13 3 -3 4 -12 1 -19z m383 -62 c0 -3 -4 -8 -10 -11 -5 -3 -10 -1 -10 4 0 6 5 11 10 11 6 0 10 -2 10 -4z m20 -20 c0 -3 -4 -8 -10 -11 -5 -3 -10 -1 -10 4 0 6 5 11 10 11 6 0 10 -2 10 -4z m20 -20 c0 -3 -4 -8 -10 -11 -5 -3 -10 -1 -10 4 0 6 5 11 10 11 6 0 10 -2 10 -4z m233 -43 c-13 -2 -35 -2 -50 0 -16 2 -5 4 22 4 28 0 40 -2 28 -4z m74 -39 c-3 -3 -12 -4 -19 -1 -8 3 -5 6 6 6 11 1 17 -2 13 -5z m60 -40 c-3 -3 -12 -4 -19 -1 -8 3 -5 6 6 6 11 1 17 -2 13 -5z m-527 -75 c0 -4 -7 -6 -15 -3 -8 4 -15 10 -15 15 0 4 7 6 15 3 8 -4 15 -10 15 -15z m631 -67 c-9 -25 -9 -24 -10 18 0 36 2 41 10 27 7 -12 7 -27 0 -45z m-188 -189 c-18 -2 -48 -2 -65 0 -18 2 -4 4 32 4 36 0 50 -2 33 -4z"/>
<path d="M226 865 c7 -27 6 -28 -24 -22 -35 7 -67 -17 -43 -33 9 -5 10 -10 2 -14 -6 -4 -11 -2 -11 3 0 6 -4 11 -10 11 -5 0 -7 -15 -5 -32 4 -27 3 -28 -3 -8 -5 17 -10 21 -15 13 -5 -7 -3 -21 3 -32 5 -11 10 -31 10 -45 0 -32 17 -34 23 -3 2 12 2 3 0 -20 -3 -26 0 -43 6 -43 6 0 11 7 11 16 0 8 5 12 10 9 8 -5 7 -11 -1 -21 -6 -7 -8 -22 -4 -31 7 -17 8 -16 16 2 8 16 8 15 4 -7 -5 -27 10 -49 18 -26 2 7 2 3 1 -9 -4 -24 12 -41 19 -21 2 7 3 5 1 -6 -3 -19 15 -56 28 -56 3 0 8 6 11 13 2 6 3 3 1 -8 -2 -15 25 -49 99 -123 86 -86 106 -101 127 -97 22 5 22 4 5 -4 -21 -10 -15 -13 25 -13 18 1 20 -1 7 -5 -18 -4 -18 -6 -1 -24 11 -13 25 -17 43 -14 22 5 23 4 6 -4 -22 -10 -16 -13 30 -13 23 0 25 -1 7 -5 -33 -7 -17 -22 21 -19 17 2 24 1 14 -1 -35 -9 -6 -20 45 -17 49 2 50 2 13 -5 -41 -8 -38 -11 27 -29 21 -6 40 -6 43 -2 3 5 -3 11 -12 13 -10 2 -6 3 9 1 31 -4 60 22 39 36 -9 5 -10 10 -2 14 6 4 11 2 11 -3 0 -6 4 -11 10 -11 5 0 7 13 3 31 -6 31 -5 32 22 25 25 -6 27 -5 16 8 -9 10 -23 14 -40 11 -14 -3 -20 -2 -13 1 24 11 -17 45 -47 38 -17 -4 -22 -2 -13 3 20 15 -17 39 -58 37 -52 -2 -58 -5 -30 -15 21 -7 19 -8 -12 -4 -38 4 -54 -10 -20 -17 9 -3 -11 -4 -44 -4 -34 1 -58 4 -53 7 13 8 -25 40 -42 36 -8 -2 -11 -2 -6 0 17 10 5 24 -15 18 -14 -4 -18 -3 -11 2 9 6 -7 28 -56 77 -48 47 -71 64 -75 55 -3 -8 -3 -4 0 9 6 23 -10 31 -20 10 -3 -7 -4 -4 -1 7 2 11 -3 29 -11 40 -13 17 -16 18 -24 5 -6 -10 -7 -2 -3 25 3 22 10 45 15 52 5 6 7 22 5 35 -2 12 -2 17 0 11 10 -28 21 -10 21 31 -1 52 -23 90 -39 66 -7 -11 -8 -9 -4 10 3 15 -2 33 -10 45 -14 17 -17 18 -26 5 -7 -11 -8 -8 -4 11 4 17 1 30 -10 39 -15 12 -16 11 -9 -15z m41 -282 c-3 -10 -5 -4 -5 12 0 17 2 24 5 18 2 -7 2 -21 0 -30z m103 -167 c0 -3 -4 -8 -10 -11 -5 -3 -10 -1 -10 4 0 6 5 11 10 11 6 0 10 -2 10 -4z m20 -20 c0 -3 -4 -8 -10 -11 -5 -3 -10 -1 -10 4 0 6 5 11 10 11 6 0 10 -2 10 -4z m60 -16 c13 -11 18 -20 11 -20 -13 0 -41 24 -41 34 0 10 6 7 30 -14z m-40 -4 c0 -3 -4 -8 -10 -11 -5 -3 -10 -1 -10 4 0 6 5 11 10 11 6 0 10 -2 10 -4z m203 -113 c-7 -2 -21 -2 -30 0 -10 3 -4 5 12 5 17 0 24 -2 18 -5z"/>
<path d="M190 860 c0 -5 5 -10 10 -10 6 0 10 5 10 10 0 6 -4 10 -10 10 -5 0 -10 -4 -10 -10z"/>
<path d="M330 710 c0 -5 5 -10 10 -10 6 0 10 5 10 10 0 6 -4 10 -10 10 -5 0 -10 -4 -10 -10z"/>
<path d="M377 623 c-11 -10 -8 -53 3 -53 6 0 10 14 10 30 0 31 -2 35 -13 23z"/>
<path d="M850 205 c0 -8 5 -15 10 -15 6 0 10 7 10 15 0 8 -4 15 -10 15 -5 0 -10 -7 -10 -15z"/>
</g>
</g>
  <g id="id9:id9" transform="matrix(1.25,0,0,1.25,0.0,0.0)"><g transform="translate(0.000000,40.000000) scale(0.040000,-0.040000)" fill="#ffffff" stroke="none">
<path d="M0 500 l0 -500 500 0 500 0 0 500 0 500 -500 0 -500 0 0 -500z m253 473 c-13 -2 -33 -2 -45 0 -13 2 -3 4 22 4 25 0 35 -2 23 -4z m22 -33 c4 -6 11 -8 16 -5 5 3 7 0 4 -7 -2 -7 2 -22 11 -33 13 -17 16 -18 25 -5 7 11 8 9 4 -10 -3 -15 2 -33 10 -45 14 -17 17 -18 26 -5 8 12 9 10 4 -8 -4 -14 1 -32 14 -51 21 -29 29 -95 13 -105 -5 -3 -8 -30 -7 -62 l2 -56 88 -88 c72 -73 92 -88 114 -85 38 4 39 7 6 15 -28 7 -27 7 7 5 38 -3 63 11 31 17 -9 2 21 3 67 3 46 0 76 -2 66 -3 -30 -6 10 -42 43 -38 14 2 20 1 13 -1 -11 -4 -10 -9 3 -23 12 -14 26 -18 49 -14 21 3 25 2 13 -4 -17 -7 -17 -9 2 -26 11 -10 25 -15 32 -10 7 4 10 3 5 -4 -3 -6 -2 -13 4 -17 14 -9 13 -78 -2 -93 -8 -8 -8 -15 2 -27 8 -10 9 -15 1 -15 -6 0 -11 5 -11 12 0 7 -25 -12 -55 -42 -40 -39 -51 -56 -41 -60 8 -3 -31 -5 -87 -5 -56 0 -88 2 -72 5 43 8 14 22 -32 16 -21 -3 -30 -3 -20 0 26 8 10 24 -21 20 -15 -2 -21 -1 -14 1 23 8 1 23 -26 18 -23 -4 -24 -4 -7 4 22 10 14 14 -25 12 -22 -1 -22 0 -6 7 21 9 8 25 -16 19 -7 -2 -10 -2 -5 0 18 11 4 23 -20 17 -18 -3 -23 -2 -15 3 15 12 -37 66 -59 60 -8 -2 -11 -2 -6 0 13 8 7 25 -7 20 -10 -4 -13 -1 -9 9 5 14 -12 20 -20 7 -2 -5 -3 -3 -1 3 4 19 -93 108 -100 92 -3 -7 -3 -3 0 10 6 23 -10 31 -20 10 -3 -7 -3 -3 0 10 5 20 -9 32 -19 15 -2 -5 -2 -2 0 6 2 8 -4 22 -14 33 -13 14 -19 16 -25 6 -6 -9 -8 -7 -4 7 3 11 -2 29 -10 40 -13 17 -16 18 -25 5 -7 -11 -8 -8 -3 13 6 27 -10 40 -19 15 -2 -7 -2 -1 0 15 5 27 -12 39 -20 15 -2 -7 -3 -3 -1 9 2 12 -6 41 -17 65 -35 69 -38 79 -42 148 -2 36 -2 59 1 51 3 -8 23 5 58 40 39 38 50 55 41 62 -7 5 -4 6 10 2 12 -3 24 -1 28 5 8 13 82 13 90 0z m-248 -212 c-2 -18 -4 -4 -4 32 0 36 2 50 4 33 2 -18 2 -48 0 -65z m418 -8 c2 -13 0 -30 -5 -39 -7 -12 -9 -4 -10 28 0 46 7 51 15 11z m-398 -62 c-3 -7 -5 -2 -5 12 0 14 2 19 5 13 2 -7 2 -19 0 -25z m370 -20 c-3 -8 -6 -5 -6 6 -1 11 2 17 5 13 3 -3 4 -12 1 -19z m-350 -20 c-3 -8 -6 -5 -6 6 -1 11 2 17 5 13 3 -3 4 -12 1 -19z m20 -40 c-3 -8 -6 -5 -6 6 -1 11 2 17 5 13 3 -3 4 -12 1 -19z m383 -62 c0 -3 -4 -8 -10 -11 -5 -3 -10 -1 -10 4 0 6 5 11 10 11 6 0 10 -2 10 -4z m20 -20 c0 -3 -4 -8 -10 -11 -5 -3 -10 -1 -10 4 0 6 5 11 10 11 6 0 10 -2 10 -4z m20 -20 c0 -3 -4 -8 -10 -11 -5 -3 -10 -1 -10 4 0 6 5 11 10 11 6 0 10 -2 10 -4z m233 -43 c-13 -2 -35 -2 -50 0 -16 2 -5 4 22 4 28 0 40 -2 28 -4z m74 -39 c-3 -3 -12 -4 -19 -1 -8 3 -5 6 6 6 11 1 17 -2 13 -5z m60 -40 c-3 -3 -12 -4 -19 -1 -8 3 -5 6 6 6 11 1 17 -2 13 -5z m-527 -75 c0 -4 -7 -6 -15 -3 -8 4 -15 10 -15 15 0 4 7 6 15 3 8 -4 15 -10 15 -15z m631 -67 c-9 -25 -9 -24 -10 18 0 36 2 41 10 27 7 -12 7 -27 0 -45z m-188 -189 c-18 -2 -48 -2 -65 0 -18 2 -4 4 32 4 36 0 50 -2 33 -4z"/>
<path d="M226 865 c7 -27 6 -28 -24 -22 -35 7 -67 -17 -43 -33 9 -5 10 -10 2 -14 -6 -4 -11 -2 -11 3 0 6 -4 11 -10 11 -5 0 -7 -15 -5 -32 4 -27 3 -28 -3 -8 -5 17 -10 21 -15 13 -5 -7 -3 -21 3 -32 5 -11 10 -31 10 -45 0 -32 17 -34 23 -3 2 12 2 3 0 -20 -3 -26 0 -43 6 -43 6 0 11 7 11 16 0 8 5 12 10 9 8 -5 7 -11 -1 -21 -6 -7 -8 -22 -4 -31 7 -17 8 -16 16 2 8 16 8 15 4 -7 -5 -27 10 -49 18 -26 2 7 2 3 1 -9 -4 -24 12 -41 19 -21 2 7 3 5 1 -6 -3 -19 15 -56 28 -56 3 0 8 6 11 13 2 6 3 3 1 -8 -2 -15 25 -49 99 -123 86 -86 106 -101 127 -97 22 5 22 4 5 -4 -21 -10 -15 -13 25 -13 18 1 20 -1 7 -5 -18 -4 -18 -6 -1 -24 11 -13 25 -17 43 -14 22 5 23 4 6 -4 -22 -10 -16 -13 30 -13 23 0 25 -1 7 -5 -33 -7 -17 -22 21 -19 17 2 24 1 14 -1 -35 -9 -6 -20 45 -17 49 2 50 2 13 -5 -41 -8 -38 -11 27 -29 21 -6 40 -6 43 -2 3 5 -3 11 -12 13 -10 2 -6 3 9 1 31 -4 60 22 39 36 -9 5 -10 10 -2 14 6 4 11 2 11 -3 0 -6 4 -11 10 -11 5 0 7 13 3 31 -6 31 -5 32 22 25 25 -6 27 -5 16 8 -9 10 -23 14 -40 11 -14 -3 -20 -2 -13 1 24 11 -17 45 -47 38 -17 -4 -22 -2 -13 3 20 15 -17 39 -58 37 -52 -2 -58 -5 -30 -15 21 -7 19 -8 -12 -4 -38 4 -54 -10 -20 -17 9 -3 -11 -4 -44 -4 -34 1 -58 4 -53 7 13 8 -25 40 -42 36 -8 -2 -11 -2 -6 0 17 10 5 24 -15 18 -14 -4 -18 -3 -11 2 9 6 -7 28 -56 77 -48 47 -71 64 -75 55 -3 -8 -3 -4 0 9 6 23 -10 31 -20 10 -3 -7 -4 -4 -1 7 2 11 -3 29 -11 40 -13 17 -16 18 -24 5 -6 -10 -7 -2 -3 25 3 22 10 45 15 52 5 6 7 22 5 35 -2 12 -2 17 0 11 10 -28 21 -10 21 31 -1 52 -23 90 -39 66 -7 -11 -8 -9 -4 10 3 15 -2 33 -10 45 -14 17 -17 18 -26 5 -7 -11 -8 -8 -4 11 4 17 1 30 -10 39 -15 12 -16 11 -9 -15z m41 -282 c-3 -10 -5 -4 -5 12 0 17 2 24 5 18 2 -7 2 -21 0 -30z m103 -167 c0 -3 -4 -8 -10 -11 -5 -3 -10 -1 -10 4 0 6 5 11 10 11 6 0 10 -2 10 -4z m20 -20 c0 -3 -4 -8 -10 -11 -5 -3 -10 -1 -10 4 0 6 5 11 10 11 6 0 10 -2 10 -4z m60 -16 c13 -11 18 -20 11 -20 -13 0 -41 24 -41 34 0 10 6 7 30 -14z m-40 -4 c0 -3 -4 -8 -10 -11 -5 -3 -10 -1 -10 4 0 6 5 11 10 11 6 0 10 -2 10 -4z m203 -113 c-7 -2 -21 -2 -30 0 -10 3 -4 5 12 5 17 0 24 -2 18 -5z"/>
<path d="M190 860 c0 -5 5 -10 10 -10 6 0 10 5 10 10 0 6 -4 10 -10 10 -5 0 -10 -4 -10 -10z"/>
<path d="M330 710 c0 -5 5 -10 10 -10 6 0 10 5 10 10 0 6 -4 10 -10 10 -5 0 -10 -4 -10 -10z"/>
<path d="M377 623 c-11 -10 -8 -53 3 -53 6 0 10 14 10 30 0 31 -2 35 -13 23z"/>
<path d="M850 205 c0 -8 5 -15 10 -15 6 0 10 7 10 15 0 8 -4 15 -10 15 -5 0 -10 -7 -10 -15z"/>
</g>
</g>
  <g id="id10:id10" transform="matrix(1.25,0,0,1.25,0.0,0.0)"><g transform="translate(0.000000,40.000000) scale(0.040000,-0.040000)" fill="#ffffff" stroke="none">
<path d="M0 500 l0 -500 500 0 500 0 0 500 0 500 -500 0 -500 0 0 -500z m253 473 c-13 -2 -33 -2 -45 0 -13 2 -3 4 22 4 25 0 35 -2 23 -4z m22 -33 c4 -6 11 -8 16 -5 5 3 7 0 4 -7 -2 -7 2 -22 11 -33 13 -17 16 -18 25 -5 7 11 8 9 4 -10 -3 -15 2 -33 10 -45 14 -17 17 -18 26 -5 8 12 9 10 4 -8 -4 -14 1 -32 14 -51 21 -29 29 -95 13 -105 -5 -3 -8 -30 -7 -62 l2 -56 88 -88 c72 -73 92 -88 114 -85 38 4 39 7 6 15 -28 7 -27 7 7 5 38 -3 63 11 31 17 -9 2 21 3 67 3 46 0 76 -2 66 -3 -30 -6 10 -42 43 -38 14 2 20 1 13 -1 -11 -4 -10 -9 3 -23 12 -14 26 -18 49 -14 21 3 25 2 13 -4 -17 -7 -17 -9 2 -26 11 -10 25 -15 32 -10 7 4 10 3 5 -4 -3 -6 -2 -13 4 -17 14 -9 13 -78 -2 -93 -8 -8 -8 -15 2 -27 8 -10 9 -15 1 -15 -6 0 -11 5 -11 12 0 7 -25 -12 -55 -42 -40 -39 -51 -56 -41 -60 8 -3 -31 -5 -87 -5 -56 0 -88 2 -72 5 43 8 14 22 -32 16 -21 -3 -30 -3 -20 0 26 8 10 24 -21 20 -15 -2 -21 -1 -14 1 23 8 1 23 -26 18 -23 -4 -24 -4 -7 4 22 10 14 14 -25 12 -22 -1 -22 0 -6 7 21 9 8 25 -16 19 -7 -2 -10 -2 -5 0 18 11 4 23 -20 17 -18 -3 -23 -2 -15 3 15 12 -37 66 -59 60 -8 -2 -11 -2 -6 0 13 8 7 25 -7 20 -10 -4 -13 -1 -9 9 5 14 -12 20 -20 7 -2 -5 -3 -3 -1 3 4 19 -93 108 -100 92 -3 -7 -3 -3 0 10 6 23 -10 31 -20 10 -3 -7 -3 -3 0 10 5 20 -9 32 -19 15 -2 -5 -2 -2 0 6 2 8 -4 22 -14 33 -13 14 -19 16 -25 6 -6 -9 -8 -7 -4 7 3 11 -2 29 -10 40 -13 17 -16 18 -25 5 -7 -11 -8 -8 -3 13 6 27 -10 40 -19 15 -2 -7 -2 -1 0 15 5 27 -12 39 -20 15 -2 -7 -3 -3 -1 9 2 12 -6 41 -17 65 -35 69 -38 79 -42 148 -2 36 -2 59 1 51 3 -8 23 5 58 40 39 38 50 55 41 62 -7 5 -4 6 10 2 12 -3 24 -1 28 5 8 13 82 13 90 0z m-248 -212 c-2 -18 -4 -4 -4 32 0 36 2 50 4 33 2 -18 2 -48 0 -65z m418 -8 c2 -13 0 -30 -5 -39 -7 -12 -9 -4 -10 28 0 46 7 51 15 11z m-398 -62 c-3 -7 -5 -2 -5 12 0 14 2 19 5 13 2 -7 2 -19 0 -25z m370 -20 c-3 -8 -6 -5 -6 6 -1 11 2 17 5 13 3 -3 4 -12 1 -19z m-350 -20 c-3 -8 -6 -5 -6 6 -1 11 2 17 5 13 3 -3 4 -12 1 -19z m20 -40 c-3 -8 -6 -5 -6 6 -1 11 2 17 5 13 3 -3 4 -12 1 -19z m383 -62 c0 -3 -4 -8 -10 -11 -5 -3 -10 -1 -10 4 0 6 5 11 10 11 6 0 10 -2 10 -4z m20 -20 c0 -3 -4 -8 -10 -11 -5 -3 -10 -1 -10 4 0 6 5 11 10 11 6 0 10 -2 10 -4z m20 -20 c0 -3 -4 -8 -10 -11 -5 -3 -10 -1 -10 4 0 6 5 11 10 11 6 0 10 -2 10 -4z m233 -43 c-13 -2 -35 -2 -50 0 -16 2 -5 4 22 4 28 0 40 -2 28 -4z m74 -39 c-3 -3 -12 -4 -19 -1 -8 3 -5 6 6 6 11 1 17 -2 13 -5z m60 -40 c-3 -3 -12 -4 -19 -1 -8 3 -5 6 6 6 11 1 17 -2 13 -5z m-527 -75 c0 -4 -7 -6 -15 -3 -8 4 -15 10 -15 15 0 4 7 6 15 3 8 -4 15 -10 15 -15z m631 -67 c-9 -25 -9 -24 -10 18 0 36 2 41 10 27 7 -12 7 -27 0 -45z m-188 -189 c-18 -2 -48 -2 -65 0 -18 2 -4 4 32 4 36 0 50 -2 33 -4z"/>
<path d="M226 865 c7 -27 6 -28 -24 -22 -35 7 -67 -17 -43 -33 9 -5 10 -10 2 -14 -6 -4 -11 -2 -11 3 0 6 -4 11 -10 11 -5 0 -7 -15 -5 -32 4 -27 3 -28 -3 -8 -5 17 -10 21 -15 13 -5 -7 -3 -21 3 -32 5 -11 10 -31 10 -45 0 -32 17 -34 23 -3 2 12 2 3 0 -20 -3 -26 0 -43 6 -43 6 0 11 7 11 16 0 8 5 12 10 9 8 -5 7 -11 -1 -21 -6 -7 -8 -22 -4 -31 7 -17 8 -16 16 2 8 16 8 15 4 -7 -5 -27 10 -49 18 -26 2 7 2 3 1 -9 -4 -24 12 -41 19 -21 2 7 3 5 1 -6 -3 -19 15 -56 28 -56 3 0 8 6 11 13 2 6 3 3 1 -8 -2 -15 25 -49 99 -123 86 -86 106 -101 127 -97 22 5 22 4 5 -4 -21 -10 -15 -13 25 -13 18 1 20 -1 7 -5 -18 -4 -18 -6 -1 -24 11 -13 25 -17 43 -14 22 5 23 4 6 -4 -22 -10 -16 -13 30 -13 23 0 25 -1 7 -5 -33 -7 -17 -22 21 -19 17 2 24 1 14 -1 -35 -9 -6 -20 45 -17 49 2 50 2 13 -5 -41 -8 -38 -11 27 -29 21 -6 40 -6 43 -2 3 5 -3 11 -12 13 -10 2 -6 3 9 1 31 -4 60 22 39 36 -9 5 -10 10 -2 14 6 4 11 2 11 -3 0 -6 4 -11 10 -11 5 0 7 13 3 31 -6 31 -5 32 22 25 25 -6 27 -5 16 8 -9 10 -23 14 -40 11 -14 -3 -20 -2 -13 1 24 11 -17 45 -47 38 -17 -4 -22 -2 -13 3 20 15 -17 39 -58 37 -52 -2 -58 -5 -30 -15 21 -7 19 -8 -12 -4 -38 4 -54 -10 -20 -17 9 -3 -11 -4 -44 -4 -34 1 -58 4 -53 7 13 8 -25 40 -42 36 -8 -2 -11 -2 -6 0 17 10 5 24 -15 18 -14 -4 -18 -3 -11 2 9 6 -7 28 -56 77 -48 47 -71 64 -75 55 -3 -8 -3 -4 0 9 6 23 -10 31 -20 10 -3 -7 -4 -4 -1 7 2 11 -3 29 -11 40 -13 17 -16 18 -24 5 -6 -10 -7 -2 -3 25 3 22 10 45 15 52 5 6 7 22 5 35 -2 12 -2 17 0 11 10 -28 21 -10 21 31 -1 52 -23 90 -39 66 -7 -11 -8 -9 -4 10 3 15 -2 33 -10 45 -14 17 -17 18 -26 5 -7 -11 -8 -8 -4 11 4 17 1 30 -10 39 -15 12 -16 11 -9 -15z m41 -282 c-3 -10 -5 -4 -5 12 0 17 2 24 5 18 2 -7 2 -21 0 -30z m103 -167 c0 -3 -4 -8 -10 -11 -5 -3 -10 -1 -10 4 0 6 5 11 10 11 6 0 10 -2 10 -4z m20 -20 c0 -3 -4 -8 -10 -11 -5 -3 -10 -1 -10 4 0 6 5 11 10 11 6 0 10 -2 10 -4z m60 -16 c13 -11 18 -20 11 -20 -13 0 -41 24 -41 34 0 10 6 7 30 -14z m-40 -4 c0 -3 -4 -8 -10 -11 -5 -3 -10 -1 -10 4 0 6 5 11 10 11 6 0 10 -2 10 -4z m203 -113 c-7 -2 -21 -2 -30 0 -10 3 -4 5 12 5 17 0 24 -2 18 -5z"/>
<path d="M190 860 c0 -5 5 -10 10 -10 6 0 10 5 10 10 0 6 -4 10 -10 10 -5 0 -10 -4 -10 -10z"/>
<path d="M330 710 c0 -5 5 -10 10 -10 6 0 10 5 10 10 0 6 -4 10 -10 10 -5 0 -10 -4 -10 -10z"/>
<path d="M377 623 c-11 -10 -8 -53 3 -53 6 0 10 14 10 30 0 31 -2 35 -13 23z"/>
<path d="M850 205 c0 -8 5 -15 10 -15 6 0 10 7 10 15 0 8 -4 15 -10 15 -5 0 -10 -7 -10 -15z"/>
</g>
</g>
  <g id="id11:id11" transform="matrix(1.25,0,0,1.25,0.0,0.0)"><g transform="translate(0.000000,40.000000) scale(0.040000,-0.040000)" fill="#ffffff" stroke="none">
<path d="M0 500 l0 -500 500 0 500 0 0 500 0 500 -500 0 -500 0 0 -500z m253 473 c-13 -2 -33 -2 -45 0 -13 2 -3 4 22 4 25 0 35 -2 23 -4z m22 -33 c4 -6 11 -8 16 -5 5 3 7 0 4 -7 -2 -7 2 -22 11 -33 13 -17 16 -18 25 -5 7 11 8 9 4 -10 -3 -15 2 -33 10 -45 14 -17 17 -18 26 -5 8 12 9 10 4 -8 -4 -14 1 -32 14 -51 21 -29 29 -95 13 -105 -5 -3 -8 -30 -7 -62 l2 -56 88 -88 c72 -73 92 -88 114 -85 38 4 39 7 6 15 -28 7 -27 7 7 5 38 -3 63 11 31 17 -9 2 21 3 67 3 46 0 76 -2 66 -3 -30 -6 10 -42 43 -38 14 2 20 1 13 -1 -11 -4 -10 -9 3 -23 12 -14 26 -18 49 -14 21 3 25 2 13 -4 -17 -7 -17 -9 2 -26 11 -10 25 -15 32 -10 7 4 10 3 5 -4 -3 -6 -2 -13 4 -17 14 -9 13 -78 -2 -93 -8 -8 -8 -15 2 -27 8 -10 9 -15 1 -15 -6 0 -11 5 -11 12 0 7 -25 -12 -55 -42 -40 -39 -51 -56 -41 -60 8 -3 -31 -5 -87 -5 -56 0 -88 2 -72 5 43 8 14 22 -32 16 -21 -3 -30 -3 -20 0 26 8 10 24 -21 20 -15 -2 -21 -1 -14 1 23 8 1 23 -26 18 -23 -4 -24 -4 -7 4 22 10 14 14 -25 12 -22 -1 -22 0 -6 7 21 9 8 25 -16 19 -7 -2 -10 -2 -5 0 18 11 4 23 -20 17 -18 -3 -23 -2 -15 3 15 12 -37 66 -59 60 -8 -2 -11 -2 -6 0 13 8 7 25 -7 20 -10 -4 -13 -1 -9 9 5 14 -12 20 -20 7 -2 -5 -3 -3 -1 3 4 19 -93 108 -100 92 -3 -7 -3 -3 0 10 6 23 -10 31 -20 10 -3 -7 -3 -3 0 10 5 20 -9 32 -19 15 -2 -5 -2 -2 0 6 2 8 -4 22 -14 33 -13 14 -19 16 -25 6 -6 -9 -8 -7 -4 7 3 11 -2 29 -10 40 -13 17 -16 18 -25 5 -7 -11 -8 -8 -3 13 6 27 -10 40 -19 15 -2 -7 -2 -1 0 15 5 27 -12 39 -20 15 -2 -7 -3 -3 -1 9 2 12 -6 41 -17 65 -35 69 -38 79 -42 148 -2 36 -2 59 1 51 3 -8 23 5 58 40 39 38 50 55 41 62 -7 5 -4 6 10 2 12 -3 24 -1 28 5 8 13 82 13 90 0z m-248 -212 c-2 -18 -4 -4 -4 32 0 36 2 50 4 33 2 -18 2 -48 0 -65z m418 -8 c2 -13 0 -30 -5 -39 -7 -12 -9 -4 -10 28 0 46 7 51 15 11z m-398 -62 c-3 -7 -5 -2 -5 12 0 14 2 19 5 13 2 -7 2 -19 0 -25z m370 -20 c-3 -8 -6 -5 -6 6 -1 11 2 17 5 13 3 -3 4 -12 1 -19z m-350 -20 c-3 -8 -6 -5 -6 6 -1 11 2 17 5 13 3 -3 4 -12 1 -19z m20 -40 c-3 -8 -6 -5 -6 6 -1 11 2 17 5 13 3 -3 4 -12 1 -19z m383 -62 c0 -3 -4 -8 -10 -11 -5 -3 -10 -1 -10 4 0 6 5 11 10 11 6 0 10 -2 10 -4z m20 -20 c0 -3 -4 -8 -10 -11 -5 -3 -10 -1 -10 4 0 6 5 11 10 11 6 0 10 -2 10 -4z m20 -20 c0 -3 -4 -8 -10 -11 -5 -3 -10 -1 -10 4 0 6 5 11 10 11 6 0 10 -2 10 -4z m233 -43 c-13 -2 -35 -2 -50 0 -16 2 -5 4 22 4 28 0 40 -2 28 -4z m74 -39 c-3 -3 -12 -4 -19 -1 -8 3 -5 6 6 6 11 1 17 -2 13 -5z m60 -40 c-3 -3 -12 -4 -19 -1 -8 3 -5 6 6 6 11 1 17 -2 13 -5z m-527 -75 c0 -4 -7 -6 -15 -3 -8 4 -15 10 -15 15 0 4 7 6 15 3 8 -4 15 -10 15 -15z m631 -67 c-9 -25 -9 -24 -10 18 0 36 2 41 10 27 7 -12 7 -27 0 -45z m-188 -189 c-18 -2 -48 -2 -65 0 -18 2 -4 4 32 4 36 0 50 -2 33 -4z"/>
<path d="M226 865 c7 -27 6 -28 -24 -22 -35 7 -67 -17 -43 -33 9 -5 10 -10 2 -14 -6 -4 -11 -2 -11 3 0 6 -4 11 -10 11 -5 0 -7 -15 -5 -32 4 -27 3 -28 -3 -8 -5 17 -10 21 -15 13 -5 -7 -3 -21 3 -32 5 -11 10 -31 10 -45 0 -32 17 -34 23 -3 2 12 2 3 0 -20 -3 -26 0 -43 6 -43 6 0 11 7 11 16 0 8 5 12 10 9 8 -5 7 -11 -1 -21 -6 -7 -8 -22 -4 -31 7 -17 8 -16 16 2 8 16 8 15 4 -7 -5 -27 10 -49 18 -26 2 7 2 3 1 -9 -4 -24 12 -41 19 -21 2 7 3 5 1 -6 -3 -19 15 -56 28 -56 3 0 8 6 11 13 2 6 3 3 1 -8 -2 -15 25 -49 99 -123 86 -86 106 -101 127 -97 22 5 22 4 5 -4 -21 -10 -15 -13 25 -13 18 1 20 -1 7 -5 -18 -4 -18 -6 -1 -24 11 -13 25 -17 43 -14 22 5 23 4 6 -4 -22 -10 -16 -13 30 -13 23 0 25 -1 7 -5 -33 -7 -17 -22 21 -19 17 2 24 1 14 -1 -35 -9 -6 -20 45 -17 49 2 50 2 13 -5 -41 -8 -38 -11 27 -29 21 -6 40 -6 43 -2 3 5 -3 11 -12 13 -10 2 -6 3 9 1 31 -4 60 22 39 36 -9 5 -10 10 -2 14 6 4 11 2 11 -3 0 -6 4 -11 10 -11 5 0 7 13 3 31 -6 31 -5 32 22 25 25 -6 27 -5 16 8 -9 10 -23 14 -40 11 -14 -3 -20 -2 -13 1 24 11 -17 45 -47 38 -17 -4 -22 -2 -13 3 20 15 -17 39 -58 37 -52 -2 -58 -5 -30 -15 21 -7 19 -8 -12 -4 -38 4 -54 -10 -20 -17 9 -3 -11 -4 -44 -4 -34 1 -58 4 -53 7 13 8 -25 40 -42 36 -8 -2 -11 -2 -6 0 17 10 5 24 -15 18 -14 -4 -18 -3 -11 2 9 6 -7 28 -56 77 -48 47 -71 64 -75 55 -3 -8 -3 -4 0 9 6 23 -10 31 -20 10 -3 -7 -4 -4 -1 7 2 11 -3 29 -11 40 -13 17 -16 18 -24 5 -6 -10 -7 -2 -3 25 3 22 10 45 15 52 5 6 7 22 5 35 -2 12 -2 17 0 11 10 -28 21 -10 21 31 -1 52 -23 90 -39 66 -7 -11 -8 -9 -4 10 3 15 -2 33 -10 45 -14 17 -17 18 -26 5 -7 -11 -8 -8 -4 11 4 17 1 30 -10 39 -15 12 -16 11 -9 -15z m41 -282 c-3 -10 -5 -4 -5 12 0 17 2 24 5 18 2 -7 2 -21 0 -30z m103 -167 c0 -3 -4 -8 -10 -11 -5 -3 -10 -1 -10 4 0 6 5 11 10 11 6 0 10 -2 10 -4z m20 -20 c0 -3 -4 -8 -10 -11 -5 -3 -10 -1 -10 4 0 6 5 11 10 11 6 0 10 -2 10 -4z m60 -16 c13 -11 18 -20 11 -20 -13 0 -41 24 -41 34 0 10 6 7 30 -14z m-40 -4 c0 -3 -4 -8 -10 -11 -5 -3 -10 -1 -10 4 0 6 5 11 10 11 6 0 10 -2 10 -4z m203 -113 c-7 -2 -21 -2 -30 0 -10 3 -4 5 12 5 17 0 24 -2 18 -5z"/>
<path d="M190 860 c0 -5 5 -10 10 -10 6 0 10 5 10 10 0 6 -4 10 -10 10 -5 0 -10 -4 -10 -10z"/>
<path d="M330 710 c0 -5 5 -10 10 -10 6 0 10 5 10 10 0 6 -4 10 -10 10 -5 0 -10 -4 -10 -10z"/>
<path d="M377 623 c-11 -10 -8 -53 3 -53 6 0 10 14 10 30 0 31 -2 35 -13 23z"/>
<path d="M850 205 c0 -8 5 -15 10 -15 6 0 10 7 10 15 0 8 -4 15 -10 15 -5 0 -10 -7 -10 -15z"/>
</g>
</g>
  <g id="id12:id12" transform="matrix(1.25,0,0,1.25,0.0,0.0)"><g transform="translate(0.000000,40.000000) scale(0.040000,-0.040000)" fill="#ffffff" stroke="none">
<path d="M0 500 l0 -500 500 0 500 0 0 500 0 500 -500 0 -500 0 0 -500z m253 473 c-13 -2 -33 -2 -45 0 -13 2 -3 4 22 4 25 0 35 -2 23 -4z m22 -33 c4 -6 11 -8 16 -5 5 3 7 0 4 -7 -2 -7 2 -22 11 -33 13 -17 16 -18 25 -5 7 11 8 9 4 -10 -3 -15 2 -33 10 -45 14 -17 17 -18 26 -5 8 12 9 10 4 -8 -4 -14 1 -32 14 -51 21 -29 29 -95 13 -105 -5 -3 -8 -30 -7 -62 l2 -56 88 -88 c72 -73 92 -88 114 -85 38 4 39 7 6 15 -28 7 -27 7 7 5 38 -3 63 11 31 17 -9 2 21 3 67 3 46 0 76 -2 66 -3 -30 -6 10 -42 43 -38 14 2 20 1 13 -1 -11 -4 -10 -9 3 -23 12 -14 26 -18 49 -14 21 3 25 2 13 -4 -17 -7 -17 -9 2 -26 11 -10 25 -15 32 -10 7 4 10 3 5 -4 -3 -6 -2 -13 4 -17 14 -9 13 -78 -2 -93 -8 -8 -8 -15 2 -27 8 -10 9 -15 1 -15 -6 0 -11 5 -11 12 0 7 -25 -12 -55 -42 -40 -39 -51 -56 -41 -60 8 -3 -31 -5 -87 -5 -56 0 -88 2 -72 5 43 8 14 22 -32 16 -21 -3 -30 -3 -20 0 26 8 10 24 -21 20 -15 -2 -21 -1 -14 1 23 8 1 23 -26 18 -23 -4 -24 -4 -7 4 22 10 14 14 -25 12 -22 -1 -22 0 -6 7 21 9 8 25 -16 19 -7 -2 -10 -2 -5 0 18 11 4 23 -20 17 -18 -3 -23 -2 -15 3 15 12 -37 66 -59 60 -8 -2 -11 -2 -6 0 13 8 7 25 -7 20 -10 -4 -13 -1 -9 9 5 14 -12 20 -20 7 -2 -5 -3 -3 -1 3 4 19 -93 108 -100 92 -3 -7 -3 -3 0 10 6 23 -10 31 -20 10 -3 -7 -3 -3 0 10 5 20 -9 32 -19 15 -2 -5 -2 -2 0 6 2 8 -4 22 -14 33 -13 14 -19 16 -25 6 -6 -9 -8 -7 -4 7 3 11 -2 29 -10 40 -13 17 -16 18 -25 5 -7 -11 -8 -8 -3 13 6 27 -10 40 -19 15 -2 -7 -2 -1 0 15 5 27 -12 39 -20 15 -2 -7 -3 -3 -1 9 2 12 -6 41 -17 65 -35 69 -38 79 -42 148 -2 36 -2 59 1 51 3 -8 23 5 58 40 39 38 50 55 41 62 -7 5 -4 6 10 2 12 -3 24 -1 28 5 8 13 82 13 90 0z m-248 -212 c-2 -18 -4 -4 -4 32 0 36 2 50 4 33 2 -18 2 -48 0 -65z m418 -8 c2 -13 0 -30 -5 -39 -7 -12 -9 -4 -10 28 0 46 7 51 15 11z m-398 -62 c-3 -7 -5 -2 -5 12 0 14 2 19 5 13 2 -7 2 -19 0 -25z m370 -20 c-3 -8 -6 -5 -6 6 -1 11 2 17 5 13 3 -3 4 -12 1 -19z m-350 -20 c-3 -8 -6 -5 -6 6 -1 11 2 17 5 13 3 -3 4 -12 1 -19z m20 -40 c-3 -8 -6 -5 -6 6 -1 11 2 17 5 13 3 -3 4 -12 1 -19z m383 -62 c0 -3 -4 -8 -10 -11 -5 -3 -10 -1 -10 4 0 6 5 11 10 11 6 0 10 -2 10 -4z m20 -20 c0 -3 -4 -8 -10 -11 -5 -3 -10 -1 -10 4 0 6 5 11 10 11 6 0 10 -2 10 -4z m20 -20 c0 -3 -4 -8 -10 -11 -5 -3 -10 -1 -10 4 0 6 5 11 10 11 6 0 10 -2 10 -4z m233 -43 c-13 -2 -35 -2 -50 0 -16 2 -5 4 22 4 28 0 40 -2 28 -4z m74 -39 c-3 -3 -12 -4 -19 -1 -8 3 -5 6 6 6 11 1 17 -2 13 -5z m60 -40 c-3 -3 -12 -4 -19 -1 -8 3 -5 6 6 6 11 1 17 -2 13 -5z m-527 -75 c0 -4 -7 -6 -15 -3 -8 4 -15 10 -15 15 0 4 7 6 15 3 8 -4 15 -10 15 -15z m631 -67 c-9 -25 -9 -24 -10 18 0 36 2 41 10 27 7 -12 7 -27 0 -45z m-188 -189 c-18 -2 -48 -2 -65 0 -18 2 -4 4 32 4 36 0 50 -2 33 -4z"/>
<path d="M226 865 c7 -27 6 -28 -24 -22 -35 7 -67 -17 -43 -33 9 -5 10 -10 2 -14 -6 -4 -11 -2 -11 3 0 6 -4 11 -10 11 -5 0 -7 -15 -5 -32 4 -27 3 -28 -3 -8 -5 17 -10 21 -15 13 -5 -7 -3 -21 3 -32 5 -11 10 -31 10 -45 0 -32 17 -34 23 -3 2 12 2 3 0 -20 -3 -26 0 -43 6 -43 6 0 11 7 11 16 0 8 5 12 10 9 8 -5 7 -11 -1 -21 -6 -7 -8 -22 -4 -31 7 -17 8 -16 16 2 8 16 8 15 4 -7 -5 -27 10 -49 18 -26 2 7 2 3 1 -9 -4 -24 12 -41 19 -21 2 7 3 5 1 -6 -3 -19 15 -56 28 -56 3 0 8 6 11 13 2 6 3 3 1 -8 -2 -15 25 -49 99 -123 86 -86 106 -101 127 -97 22 5 22 4 5 -4 -21 -10 -15 -13 25 -13 18 1 20 -1 7 -5 -18 -4 -18 -6 -1 -24 11 -13 25 -17 43 -14 22 5 23 4 6 -4 -22 -10 -16 -13 30 -13 23 0 25 -1 7 -5 -33 -7 -17 -22 21 -19 17 2 24 1 14 -1 -35 -9 -6 -20 45 -17 49 2 50 2 13 -5 -41 -8 -38 -11 27 -29 21 -6 40 -6 43 -2 3 5 -3 11 -12 13 -10 2 -6 3 9 1 31 -4 60 22 39 36 -9 5 -10 10 -2 14 6 4 11 2 11 -3 0 -6 4 -11 10 -11 5 0 7 13 3 31 -6 31 -5 32 22 25 25 -6 27 -5 16 8 -9 10 -23 14 -40 11 -14 -3 -20 -2 -13 1 24 11 -17 45 -47 38 -17 -4 -22 -2 -13 3 20 15 -17 39 -58 37 -52 -2 -58 -5 -30 -15 21 -7 19 -8 -12 -4 -38 4 -54 -10 -20 -17 9 -3 -11 -4 -44 -4 -34 1 -58 4 -53 7 13 8 -25 40 -42 36 -8 -2 -11 -2 -6 0 17 10 5 24 -15 18 -14 -4 -18 -3 -11 2 9 6 -7 28 -56 77 -48 47 -71 64 -75 55 -3 -8 -3 -4 0 9 6 23 -10 31 -20 10 -3 -7 -4 -4 -1 7 2 11 -3 29 -11 40 -13 17 -16 18 -24 5 -6 -10 -7 -2 -3 25 3 22 10 45 15 52 5 6 7 22 5 35 -2 12 -2 17 0 11 10 -28 21 -10 21 31 -1 52 -23 90 -39 66 -7 -11 -8 -9 -4 10 3 15 -2 33 -10 45 -14 17 -17 18 -26 5 -7 -11 -8 -8 -4 11 4 17 1 30 -10 39 -15 12 -16 11 -9 -15z m41 -282 c-3 -10 -5 -4 -5 12 0 17 2 24 5 18 2 -7 2 -21 0 -30z m103 -167 c0 -3 -4 -8 -10 -11 -5 -3 -10 -1 -10 4 0 6 5 11 10 11 6 0 10 -2 10 -4z m20 -20 c0 -3 -4 -8 -10 -11 -5 -3 -10 -1 -10 4 0 6 5 11 10 11 6 0 10 -2 10 -4z m60 -16 c13 -11 18 -20 11 -20 -13 0 -41 24 -41 34 0 10 6 7 30 -14z m-40 -4 c0 -3 -4 -8 -10 -11 -5 -3 -10 -1 -10 4 0 6 5 11 10 11 6 0 10 -2 10 -4z m203 -113 c-7 -2 -21 -2 -30 0 -10 3 -4 5 12 5 17 0 24 -2 18 -5z"/>
<path d="M190 860 c0 -5 5 -10 10 -10 6 0 10 5 10 10 0 6 -4 10 -10 10 -5 0 -10 -4 -10 -10z"/>
<path d="M330 710 c0 -5 5 -10 10 -10 6 0 10 5 10 10 0 6 -4 10 -10 10 -5 0 -10 -4 -10 -10z"/>
<path d="M377 623 c-11 -10 -8 -53 3 -53 6 0 10 14 10 30 0 31 -2 35 -13 23z"/>
<path d="M850 205 c0 -8 5 -15 10 -15 6 0 10 7 10 15 0 8 -4 15 -10 15 -5 0 -10 -7 -10 -15z"/>
</g>
</g>
  <g id="id13:id13" transform="matrix(1.25,0,0,1.25,0.0,0.0)"><g transform="translate(0.000000,40.000000) scale(0.040000,-0.040000)" fill="#ffffff" stroke="none">
<path d="M0 500 l0 -500 500 0 500 0 0 500 0 500 -500 0 -500 0 0 -500z m253 473 c-13 -2 -33 -2 -45 0 -13 2 -3 4 22 4 25 0 35 -2 23 -4z m22 -33 c4 -6 11 -8 16 -5 5 3 7 0 4 -7 -2 -7 2 -22 11 -33 13 -17 16 -18 25 -5 7 11 8 9 4 -10 -3 -15 2 -33 10 -45 14 -17 17 -18 26 -5 8 12 9 10 4 -8 -4 -14 1 -32 14 -51 21 -29 29 -95 13 -105 -5 -3 -8 -30 -7 -62 l2 -56 88 -88 c72 -73 92 -88 114 -85 38 4 39 7 6 15 -28 7 -27 7 7 5 38 -3 63 11 31 17 -9 2 21 3 67 3 46 0 76 -2 66 -3 -30 -6 10 -42 43 -38 14 2 20 1 13 -1 -11 -4 -10 -9 3 -23 12 -14 26 -18 49 -14 21 3 25 2 13 -4 -17 -7 -17 -9 2 -26 11 -10 25 -15 32 -10 7 4 10 3 5 -4 -3 -6 -2 -13 4 -17 14 -9 13 -78 -2 -93 -8 -8 -8 -15 2 -27 8 -10 9 -15 1 -15 -6 0 -11 5 -11 12 0 7 -25 -12 -55 -42 -40 -39 -51 -56 -41 -60 8 -3 -31 -5 -87 -5 -56 0 -88 2 -72 5 43 8 14 22 -32 16 -21 -3 -30 -3 -20 0 26 8 10 24 -21 20 -15 -2 -21 -1 -14 1 23 8 1 23 -26 18 -23 -4 -24 -4 -7 4 22 10 14 14 -25 12 -22 -1 -22 0 -6 7 21 9 8 25 -16 19 -7 -2 -10 -2 -5 0 18 11 4 23 -20 17 -18 -3 -23 -2 -15 3 15 12 -37 66 -59 60 -8 -2 -11 -2 -6 0 13 8 7 25 -7 20 -10 -4 -13 -1 -9 9 5 14 -12 20 -20 7 -2 -5 -3 -3 -1 3 4 19 -93 108 -100 92 -3 -7 -3 -3 0 10 6 23 -10 31 -20 10 -3 -7 -3 -3 0 10 5 20 -9 32 -19 15 -2 -5 -2 -2 0 6 2 8 -4 22 -14 33 -13 14 -19 16 -25 6 -6 -9 -8 -7 -4 7 3 11 -2 29 -10 40 -13 17 -16 18 -25 5 -7 -11 -8 -8 -3 13 6 27 -10 40 -19 15 -2 -7 -2 -1 0 15 5 27 -12 39 -20 15 -2 -7 -3 -3 -1 9 2 12 -6 41 -17 65 -35 69 -38 79 -42 148 -2 36 -2 59 1 51 3 -8 23 5 58 40 39 38 50 55 41 62 -7 5 -4 6 10 2 12 -3 24 -1 28 5 8 13 82 13 90 0z m-248 -212 c-2 -18 -4 -4 -4 32 0 36 2 50 4 33 2 -18 2 -48 0 -65z m418 -8 c2 -13 0 -30 -5 -39 -7 -12 -9 -4 -10 28 0 46 7 51 15 11z m-398 -62 c-3 -7 -5 -2 -5 12 0 14 2 19 5 13 2 -7 2 -19 0 -25z m370 -20 c-3 -8 -6 -5 -6 6 -1 11 2 17 5 13 3 -3 4 -12 1 -19z m-350 -20 c-3 -8 -6 -5 -6 6 -1 11 2 17 5 13 3 -3 4 -12 1 -19z m20 -40 c-3 -8 -6 -5 -6 6 -1 11 2 17 5 13 3 -3 4 -12 1 -19z m383 -62 c0 -3 -4 -8 -10 -11 -5 -3 -10 -1 -10 4 0 6 5 11 10 11 6 0 10 -2 10 -4z m20 -20 c0 -3 -4 -8 -10 -11 -5 -3 -10 -1 -10 4 0 6 5 11 10 11 6 0 10 -2 10 -4z m20 -20 c0 -3 -4 -8 -10 -11 -5 -3 -10 -1 -10 4 0 6 5 11 10 11 6 0 10 -2 10 -4z m233 -43 c-13 -2 -35 -2 -50 0 -16 2 -5 4 22 4 28 0 40 -2 28 -4z m74 -39 c-3 -3 -12 -4 -19 -1 -8 3 -5 6 6 6 11 1 17 -2 13 -5z m60 -40 c-3 -3 -12 -4 -19 -1 -8 3 -5 6 6 6 11 1 17 -2 13 -5z m-527 -75 c0 -4 -7 -6 -15 -3 -8 4 -15 10 -15 15 0 4 7 6 15 3 8 -4 15 -10 15 -15z m631 -67 c-9 -25 -9 -24 -10 18 0 36 2 41 10 27 7 -12 7 -27 0 -45z m-188 -189 c-18 -2 -48 -2 -65 0 -18 2 -4 4 32 4 36 0 50 -2 33 -4z"/>
<path d="M226 865 c7 -27 6 -28 -24 -22 -35 7 -67 -17 -43 -33 9 -5 10 -10 2 -14 -6 -4 -11 -2 -11 3 0 6 -4 11 -10 11 -5 0 -7 -15 -5 -32 4 -27 3 -28 -3 -8 -5 17 -10 21 -15 13 -5 -7 -3 -21 3 -32 5 -11 10 -31 10 -45 0 -32 17 -34 23 -3 2 12 2 3 0 -20 -3 -26 0 -43 6 -43 6 0 11 7 11 16 0 8 5 12 10 9 8 -5 7 -11 -1 -21 -6 -7 -8 -22 -4 -31 7 -17 8 -16 16 2 8 16 8 15 4 -7 -5 -27 10 -49 18 -26 2 7 2 3 1 -9 -4 -24 12 -41 19 -21 2 7 3 5 1 -6 -3 -19 15 -56 28 -56 3 0 8 6 11 13 2 6 3 3 1 -8 -2 -15 25 -49 99 -123 86 -86 106 -101 127 -97 22 5 22 4 5 -4 -21 -10 -15 -13 25 -13 18 1 20 -1 7 -5 -18 -4 -18 -6 -1 -24 11 -13 25 -17 43 -14 22 5 23 4 6 -4 -22 -10 -16 -13 30 -13 23 0 25 -1 7 -5 -33 -7 -17 -22 21 -19 17 2 24 1 14 -1 -35 -9 -6 -20 45 -17 49 2 50 2 13 -5 -41 -8 -38 -11 27 -29 21 -6 40 -6 43 -2 3 5 -3 11 -12 13 -10 2 -6 3 9 1 31 -4 60 22 39 36 -9 5 -10 10 -2 14 6 4 11 2 11 -3 0 -6 4 -11 10 -11 5 0 7 13 3 31 -6 31 -5 32 22 25 25 -6 27 -5 16 8 -9 10 -23 14 -40 11 -14 -3 -20 -2 -13 1 24 11 -17 45 -47 38 -17 -4 -22 -2 -13 3 20 15 -17 39 -58 37 -52 -2 -58 -5 -30 -15 21 -7 19 -8 -12 -4 -38 4 -54 -10 -20 -17 9 -3 -11 -4 -44 -4 -34 1 -58 4 -53 7 13 8 -25 40 -42 36 -8 -2 -11 -2 -6 0 17 10 5 24 -15 18 -14 -4 -18 -3 -11 2 9 6 -7 28 -56 77 -48 47 -71 64 -75 55 -3 -8 -3 -4 0 9 6 23 -10 31 -20 10 -3 -7 -4 -4 -1 7 2 11 -3 29 -11 40 -13 17 -16 18 -24 5 -6 -10 -7 -2 -3 25 3 22 10 45 15 52 5 6 7 22 5 35 -2 12 -2 17 0 11 10 -28 21 -10 21 31 -1 52 -23 90 -39 66 -7 -11 -8 -9 -4 10 3 15 -2 33 -10 45 -14 17 -17 18 -26 5 -7 -11 -8 -8 -4 11 4 17 1 30 -10 39 -15 12 -16 11 -9 -15z m41 -282 c-3 -10 -5 -4 -5 12 0 17 2 24 5 18 2 -7 2 -21 0 -30z m103 -167 c0 -3 -4 -8 -10 -11 -5 -3 -10 -1 -10 4 0 6 5 11 10 11 6 0 10 -2 10 -4z m20 -20 c0 -3 -4 -8 -10 -11 -5 -3 -10 -1 -10 4 0 6 5 11 10 11 6 0 10 -2 10 -4z m60 -16 c13 -11 18 -20 11 -20 -13 0 -41 24 -41 34 0 10 6 7 30 -14z m-40 -4 c0 -3 -4 -8 -10 -11 -5 -3 -10 -1 -10 4 0 6 5 11 10 11 6 0 10 -2 10 -4z m203 -113 c-7 -2 -21 -2 -30 0 -10 3 -4 5 12 5 17 0 24 -2 18 -5z"/>
<path d="M190 860 c0 -5 5 -10 10 -10 6 0 10 5 10 10 0 6 -4 10 -10 10 -5 0 -10 -4 -10 -10z"/>
<path d="M330 710 c0 -5 5 -10 10 -10 6 0 10 5 10 10 0 6 -4 10 -10 10 -5 0 -10 -4 -10 -10z"/>
<path d="M377 623 c-11 -10 -8 -53 3 -53 6 0 10 14 10 30 0 31 -2 35 -13 23z"/>
<path d="M850 205 c0 -8 5 -15 10 -15 6 0 10 7 10 15 0 8 -4 15 -10 15 -5 0 -10 -7 -10 -15z"/>
</g>
</g>
  <g id="id14:id14" transform="matrix(1.25,0,0,1.25,0.0,0.0)"><g transform="translate(0.000000,40.000000) scale(0.040000,-0.040000)" fill="#ffffff" stroke="none">
<path d="M0 500 l0 -500 500 0 500 0 0 500 0 500 -500 0 -500 0 0 -500z m253 473 c-13 -2 -33 -2 -45 0 -13 2 -3 4 22 4 25 0 35 -2 23 -4z m22 -33 c4 -6 11 -8 16 -5 5 3 7 0 4 -7 -2 -7 2 -22 11 -33 13 -17 16 -18 25 -5 7 11 8 9 4 -10 -3 -15 2 -33 10 -45 14 -17 17 -18 26 -5 8 12 9 10 4 -8 -4 -14 1 -32 14 -51 21 -29 29 -95 13 -105 -5 -3 -8 -30 -7 -62 l2 -56 88 -88 c72 -73 92 -88 114 -85 38 4 39 7 6 15 -28 7 -27 7 7 5 38 -3 63 11 31 17 -9 2 21 3 67 3 46 0 76 -2 66 -3 -30 -6 10 -42 43 -38 14 2 20 1 13 -1 -11 -4 -10 -9 3 -23 12 -14 26 -18 49 -14 21 3 25 2 13 -4 -17 -7 -17 -9 2 -26 11 -10 25 -15 32 -10 7 4 10 3 5 -4 -3 -6 -2 -13 4 -17 14 -9 13 -78 -2 -93 -8 -8 -8 -15 2 -27 8 -10 9 -15 1 -15 -6 0 -11 5 -11 12 0 7 -25 -12 -55 -42 -40 -39 -51 -56 -41 -60 8 -3 -31 -5 -87 -5 -56 0 -88 2 -72 5 43 8 14 22 -32 16 -21 -3 -30 -3 -20 0 26 8 10 24 -21 20 -15 -2 -21 -1 -14 1 23 8 1 23 -26 18 -23 -4 -24 -4 -7 4 22 10 14 14 -25 12 -22 -1 -22 0 -6 7 21 9 8 25 -16 19 -7 -2 -10 -2 -5 0 18 11 4 23 -20 17 -18 -3 -23 -2 -15 3 15 12 -37 66 -59 60 -8 -2 -11 -2 -6 0 13 8 7 25 -7 20 -10 -4 -13 -1 -9 9 5 14 -12 20 -20 7 -2 -5 -3 -3 -1 3 4 19 -93 108 -100 92 -3 -7 -3 -3 0 10 6 23 -10 31 -20 10 -3 -7 -3 -3 0 10 5 20 -9 32 -19 15 -2 -5 -2 -2 0 6 2 8 -4 22 -14 33 -13 14 -19 16 -25 6 -6 -9 -8 -7 -4 7 3 11 -2 29 -10 40 -13 17 -16 18 -25 5 -7 -11 -8 -8 -3 13 6 27 -10 40 -19 15 -2 -7 -2 -1 0 15 5 27 -12 39 -20 15 -2 -7 -3 -3 -1 9 2 12 -6 41 -17 65 -35 69 -38 79 -42 148 -2 36 -2 59 1 51 3 -8 23 5 58 40 39 38 50 55 41 62 -7 5 -4 6 10 2 12 -3 24 -1 28 5 8 13 82 13 90 0z m-248 -212 c-2 -18 -4 -4 -4 32 0 36 2 50 4 33 2 -18 2 -48 0 -65z m418 -8 c2 -13 0 -30 -5 -39 -7 -12 -9 -4 -10 28 0 46 7 51 15 11z m-398 -62 c-3 -7 -5 -2 -5 12 0 14 2 19 5 13 2 -7 2 -19 0 -25z m370 -20 c-3 -8 -6 -5 -6 6 -1 11 2 17 5 13 3 -3 4 -12 1 -19z m-350 -20 c-3 -8 -6 -5 -6 6 -1 11 2 17 5 13 3 -3 4 -12 1 -19z m20 -40 c-3 -8 -6 -5 -6 6 -1 11 2 17 5 13 3 -3 4 -12 1 -19z m383 -62 c0 -3 -4 -8 -10 -11 -5 -3 -10 -1 -10 4 0 6 5 11 10 11 6 0 10 -2 10 -4z m20 -20 c0 -3 -4 -8 -10 -11 -5 -3 -10 -1 -10 4 0 6 5 11 10 11 6 0 10 -2 10 -4z m20 -20 c0 -3 -4 -8 -10 -11 -5 -3 -10 -1 -10 4 0 6 5 11 10 11 6 0 10 -2 10 -4z m233 -43 c-13 -2 -35 -2 -50 0 -16 2 -5 4 22 4 28 0 40 -2 28 -4z m74 -39 c-3 -3 -12 -4 -19 -1 -8 3 -5 6 6 6 11 1 17 -2 13 -5z m60 -40 c-3 -3 -12 -4 -19 -1 -8 3 -5 6 6 6 11 1 17 -2 13 -5z m-527 -75 c0 -4 -7 -6 -15 -3 -8 4 -15 10 -15 15 0 4 7 6 15 3 8 -4 15 -10 15 -15z m631 -67 c-9 -25 -9 -24 -10 18 0 36 2 41 10 27 7 -12 7 -27 0 -45z m-188 -189 c-18 -2 -48 -2 -65 0 -18 2 -4 4 32 4 36 0 50 -2 33 -4z"/>
<path d="M226 865 c7 -27 6 -28 -24 -22 -35 7 -67 -17 -43 -33 9 -5 10 -10 2 -14 -6 -4 -11 -2 -11 3 0 6 -4 11 -10 11 -5 0 -7 -15 -5 -32 4 -27 3 -28 -3 -8 -5 17 -10 21 -15 13 -5 -7 -3 -21 3 -32 5 -11 10 -31 10 -45 0 -32 17 -34 23 -3 2 12 2 3 0 -20 -3 -26 0 -43 6 -43 6 0 11 7 11 16 0 8 5 12 10 9 8 -5 7 -11 -1 -21 -6 -7 -8 -22 -4 -31 7 -17 8 -16 16 2 8 16 8 15 4 -7 -5 -27 10 -49 18 -26 2 7 2 3 1 -9 -4 -24 12 -41 19 -21 2 7 3 5 1 -6 -3 -19 15 -56 28 -56 3 0 8 6 11 13 2 6 3 3 1 -8 -2 -15 25 -49 99 -123 86 -86 106 -101 127 -97 22 5 22 4 5 -4 -21 -10 -15 -13 25 -13 18 1 20 -1 7 -5 -18 -4 -18 -6 -1 -24 11 -13 25 -17 43 -14 22 5 23 4 6 -4 -22 -10 -16 -13 30 -13 23 0 25 -1 7 -5 -33 -7 -17 -22 21 -19 17 2 24 1 14 -1 -35 -9 -6 -20 45 -17 49 2 50 2 13 -5 -41 -8 -38 -11 27 -29 21 -6 40 -6 43 -2 3 5 -3 11 -12 13 -10 2 -6 3 9 1 31 -4 60 22 39 36 -9 5 -10 10 -2 14 6 4 11 2 11 -3 0 -6 4 -11 10 -11 5 0 7 13 3 31 -6 31 -5 32 22 25 25 -6 27 -5 16 8 -9 10 -23 14 -40 11 -14 -3 -20 -2 -13 1 24 11 -17 45 -47 38 -17 -4 -22 -2 -13 3 20 15 -17 39 -58 37 -52 -2 -58 -5 -30 -15 21 -7 19 -8 -12 -4 -38 4 -54 -10 -20 -17 9 -3 -11 -4 -44 -4 -34 1 -58 4 -53 7 13 8 -25 40 -42 36 -8 -2 -11 -2 -6 0 17 10 5 24 -15 18 -14 -4 -18 -3 -11 2 9 6 -7 28 -56 77 -48 47 -71 64 -75 55 -3 -8 -3 -4 0 9 6 23 -10 31 -20 10 -3 -7 -4 -4 -1 7 2 11 -3 29 -11 40 -13 17 -16 18 -24 5 -6 -10 -7 -2 -3 25 3 22 10 45 15 52 5 6 7 22 5 35 -2 12 -2 17 0 11 10 -28 21 -10 21 31 -1 52 -23 90 -39 66 -7 -11 -8 -9 -4 10 3 15 -2 33 -10 45 -14 17 -17 18 -26 5 -7 -11 -8 -8 -4 11 4 17 1 30 -10 39 -15 12 -16 11 -9 -15z m41 -282 c-3 -10 -5 -4 -5 12 0 17 2 24 5 18 2 -7 2 -21 0 -30z m103 -167 c0 -3 -4 -8 -10 -11 -5 -3 -10 -1 -10 4 0 6 5 11 10 11 6 0 10 -2 10 -4z m20 -20 c0 -3 -4 -8 -10 -11 -5 -3 -10 -1 -10 4 0 6 5 11 10 11 6 0 10 -2 10 -4z m60 -16 c13 -11 18 -20 11 -20 -13 0 -41 24 -41 34 0 10 6 7 30 -14z m-40 -4 c0 -3 -4 -8 -10 -11 -5 -3 -10 -1 -10 4 0 6 5 11 10 11 6 0 10 -2 10 -4z m203 -113 c-7 -2 -21 -2 -30 0 -10 3 -4 5 12 5 17 0 24 -2 18 -5z"/>
<path d="M190 860 c0 -5 5 -10 10 -10 6 0 10 5 10 10 0 6 -4 10 -10 10 -5 0 -10 -4 -10 -10z"/>
<path d="M330 710 c0 -5 5 -10 10 -10 6 0 10 5 10 10 0 6 -4 10 -10 10 -5 0 -10 -4 -10 -10z"/>
<path d="M377 623 c-11 -10 -8 -53 3 -53 6 0 10 14 10 30 0 31 -2 35 -13 23z"/>
<path d="M850 205 c0 -8 5 -15 10 -15 6 0 10 7 10 15 0 8 -4 15 -10 15 -5 0 -10 -7 -10 -15z"/>
</g>
</g>
  <g id="id15:id15" transform="matrix(1.25,0,0,1.25,0.0,0.0)"><g transform="translate(0.000000,40.000000) scale(0.040000,-0.040000)" fill="#ffffff" stroke="none">
<path d="M0 500 l0 -500 500 0 500 0 0 500 0 500 -500 0 -500 0 0 -500z m253 473 c-13 -2 -33 -2 -45 0 -13 2 -3 4 22 4 25 0 35 -2 23 -4z m22 -33 c4 -6 11 -8 16 -5 5 3 7 0 4 -7 -2 -7 2 -22 11 -33 13 -17 16 -18 25 -5 7 11 8 9 4 -10 -3 -15 2 -33 10 -45 14 -17 17 -18 26 -5 8 12 9 10 4 -8 -4 -14 1 -32 14 -51 21 -29 29 -95 13 -105 -5 -3 -8 -30 -7 -62 l2 -56 88 -88 c72 -73 92 -88 114 -85 38 4 39 7 6 15 -28 7 -27 7 7 5 38 -3 63 11 31 17 -9 2 21 3 67 3 46 0 76 -2 66 -3 -30 -6 10 -42 43 -38 14 2 20 1 13 -1 -11 -4 -10 -9 3 -23 12 -14 26 -18 49 -14 21 3 25 2 13 -4 -17 -7 -17 -9 2 -26 11 -10 25 -15 32 -10 7 4 10 3 5 -4 -3 -6 -2 -13 4 -17 14 -9 13 -78 -2 -93 -8 -8 -8 -15 2 -27 8 -10 9 -15 1 -15 -6 0 -11 5 -11 12 0 7 -25 -12 -55 -42 -40 -39 -51 -56 -41 -60 8 -3 -31 -5 -87 -5 -56 0 -88 2 -72 5 43 8 14 22 -32 16 -21 -3 -30 -3 -20 0 26 8 10 24 -21 20 -15 -2 -21 -1 -14 1 23 8 1 23 -26 18 -23 -4 -24 -4 -7 4 22 10 14 14 -25 12 -22 -1 -22 0 -6 7 21 9 8 25 -16 19 -7 -2 -10 -2 -5 0 18 11 4 23 -20 17 -18 -3 -23 -2 -15 3 15 12 -37 66 -59 60 -8 -2 -11 -2 -6 0 13 8 7 25 -7 20 -10 -4 -13 -1 -9 9 5 14 -12 20 -20 7 -2 -5 -3 -3 -1 3 4 19 -93 108 -100 92 -3 -7 -3 -3 0 10 6 23 -10 31 -20 10 -3 -7 -3 -3 0 10 5 20 -9 32 -19 15 -2 -5 -2 -2 0 6 2 8 -4 22 -14 33 -13 14 -19 16 -25 6 -6 -9 -8 -7 -4 7 3 11 -2 29 -10 40 -13 17 -16 18 -25 5 -7 -11 -8 -8 -3 13 6 27 -10 40 -19 15 -2 -7 -2 -1 0 15 5 27 -12 39 -20 15 -2 -7 -3 -3 -1 9 2 12 -6 41 -17 65 -35 69 -38 79 -42 148 -2 36 -2 59 1 51 3 -8 23 5 58 40 39 38 50 55 41 62 -7 5 -4 6 10 2 12 -3 24 -1 28 5 8 13 82 13 90 0z m-248 -212 c-2 -18 -4 -4 -4 32 0 36 2 50 4 33 2 -18 2 -48 0 -65z m418 -8 c2 -13 0 -30 -5 -39 -7 -12 -9 -4 -10 28 0 46 7 51 15 11z m-398 -62 c-3 -7 -5 -2 -5 12 0 14 2 19 5 13 2 -7 2 -19 0 -25z m370 -20 c-3 -8 -6 -5 -6 6 -1 11 2 17 5 13 3 -3 4 -12 1 -19z m-350 -20 c-3 -8 -6 -5 -6 6 -1 11 2 17 5 13 3 -3 4 -12 1 -19z m20 -40 c-3 -8 -6 -5 -6 6 -1 11 2 17 5 13 3 -3 4 -12 1 -19z m383 -62 c0 -3 -4 -8 -10 -11 -5 -3 -10 -1 -10 4 0 6 5 11 10 11 6 0 10 -2 10 -4z m20 -20 c0 -3 -4 -8 -10 -11 -5 -3 -10 -1 -10 4 0 6 5 11 10 11 6 0 10 -2 10 -4z m20 -20 c0 -3 -4 -8 -10 -11 -5 -3 -10 -1 -10 4 0 6 5 11 10 11 6 0 10 -2 10 -4z m233 -43 c-13 -2 -35 -2 -50 0 -16 2 -5 4 22 4 28 0 40 -2 28 -4z m74 -39 c-3 -3 -12 -4 -19 -1 -8 3 -5 6 6 6 11 1 17 -2 13 -5z m60 -40 c-3 -3 -12 -4 -19 -1 -8 3 -5 6 6 6 11 1 17 -2 13 -5z m-527 -75 c0 -4 -7 -6 -15 -3 -8 4 -15 10 -15 15 0 4 7 6 15 3 8 -4 15 -10 15 -15z m631 -67 c-9 -25 -9 -24 -10 18 0 36 2 41 10 27 7 -12 7 -27 0 -45z m-188 -189 c-18 -2 -48 -2 -65 0 -18 2 -4 4 32 4 36 0 50 -2 33 -4z"/>
<path d="M226 865 c7 -27 6 -28 -24 -22 -35 7 -67 -17 -43 -33 9 -5 10 -10 2 -14 -6 -4 -11 -2 -11 3 0 6 -4 11 -10 11 -5 0 -7 -15 -5 -32 4 -27 3 -28 -3 -8 -5 17 -10 21 -15 13 -5 -7 -3 -21 3 -32 5 -11 10 -31 10 -45 0 -32 17 -34 23 -3 2 12 2 3 0 -20 -3 -26 0 -43 6 -43 6 0 11 7 11 16 0 8 5 12 10 9 8 -5 7 -11 -1 -21 -6 -7 -8 -22 -4 -31 7 -17 8 -16 16 2 8 16 8 15 4 -7 -5 -27 10 -49 18 -26 2 7 2 3 1 -9 -4 -24 12 -41 19 -21 2 7 3 5 1 -6 -3 -19 15 -56 28 -56 3 0 8 6 11 13 2 6 3 3 1 -8 -2 -15 25 -49 99 -123 86 -86 106 -101 127 -97 22 5 22 4 5 -4 -21 -10 -15 -13 25 -13 18 1 20 -1 7 -5 -18 -4 -18 -6 -1 -24 11 -13 25 -17 43 -14 22 5 23 4 6 -4 -22 -10 -16 -13 30 -13 23 0 25 -1 7 -5 -33 -7 -17 -22 21 -19 17 2 24 1 14 -1 -35 -9 -6 -20 45 -17 49 2 50 2 13 -5 -41 -8 -38 -11 27 -29 21 -6 40 -6 43 -2 3 5 -3 11 -12 13 -10 2 -6 3 9 1 31 -4 60 22 39 36 -9 5 -10 10 -2 14 6 4 11 2 11 -3 0 -6 4 -11 10 -11 5 0 7 13 3 31 -6 31 -5 32 22 25 25 -6 27 -5 16 8 -9 10 -23 14 -40 11 -14 -3 -20 -2 -13 1 24 11 -17 45 -47 38 -17 -4 -22 -2 -13 3 20 15 -17 39 -58 37 -52 -2 -58 -5 -30 -15 21 -7 19 -8 -12 -4 -38 4 -54 -10 -20 -17 9 -3 -11 -4 -44 -4 -34 1 -58 4 -53 7 13 8 -25 40 -42 36 -8 -2 -11 -2 -6 0 17 10 5 24 -15 18 -14 -4 -18 -3 -11 2 9 6 -7 28 -56 77 -48 47 -71 64 -75 55 -3 -8 -3 -4 0 9 6 23 -10 31 -20 10 -3 -7 -4 -4 -1 7 2 11 -3 29 -11 40 -13 17 -16 18 -24 5 -6 -10 -7 -2 -3 25 3 22 10 45 15 52 5 6 7 22 5 35 -2 12 -2 17 0 11 10 -28 21 -10 21 31 -1 52 -23 90 -39 66 -7 -11 -8 -9 -4 10 3 15 -2 33 -10 45 -14 17 -17 18 -26 5 -7 -11 -8 -8 -4 11 4 17 1 30 -10 39 -15 12 -16 11 -9 -15z m41 -282 c-3 -10 -5 -4 -5 12 0 17 2 24 5 18 2 -7 2 -21 0 -30z m103 -167 c0 -3 -4 -8 -10 -11 -5 -3 -10 -1 -10 4 0 6 5 11 10 11 6 0 10 -2 10 -4z m20 -20 c0 -3 -4 -8 -10 -11 -5 -3 -10 -1 -10 4 0 6 5 11 10 11 6 0 10 -2 10 -4z m60 -16 c13 -11 18 -20 11 -20 -13 0 -41 24 -41 34 0 10 6 7 30 -14z m-40 -4 c0 -3 -4 -8 -10 -11 -5 -3 -10 -1 -10 4 0 6 5 11 10 11 6 0 10 -2 10 -4z m203 -113 c-7 -2 -21 -2 -30 0 -10 3 -4 5 12 5 17 0 24 -2 18 -5z"/>
<path d="M190 860 c0 -5 5 -10 10 -10 6 0 10 5 10 10 0 6 -4 10 -10 10 -5 0 -10 -4 -10 -10z"/>
<path d="M330 710 c0 -5 5 -10 10 -10 6 0 10 5 10 10 0 6 -4 10 -10 10 -5 0 -10 -4 -10 -10z"/>
<path d="M377 623 c-11 -10 -8 -53 3 -53 6 0 10 14 10 30 0 31 -2 35 -13 23z"/>
<path d="M850 205 c0 -8 5 -15 10 -15 6 0 10 7 10 15 0 8 -4 15 -10 15 -5 0 -10 -7 -10 -15z"/>
</g>
</g>
</svg>
